<svg width="100" height="54" viewBox="0 0 100 54" fill="none" xmlns="http://www.w3.org/2000/svg">
<g id="CP-long-Logo">
<g id="CP-Footer-Logo">
<g id="CP-Power-P+ower">
<g id="P">
<path d="M18.3971 38.414H13.0495V34.4107H18.3971C19.1259 34.4107 19.7168 34.2876 20.1698 34.0414C20.6228 33.7952 20.9527 33.4554 21.1595 33.0221C21.3762 32.5789 21.4845 32.0816 21.4845 31.5301C21.4845 30.9392 21.3762 30.3926 21.1595 29.8904C20.9527 29.3881 20.6228 28.9843 20.1698 28.679C19.7168 28.3639 19.1259 28.2063 18.3971 28.2063H14.9994V45.7116H9.81433V24.203H18.3971C20.1205 24.203 21.6027 24.5181 22.8436 25.1484C24.0943 25.7787 25.0545 26.6454 25.7242 27.7484C26.3939 28.8415 26.7287 30.0923 26.7287 31.5006C26.7287 32.8892 26.3939 34.1005 25.7242 35.1346C25.0545 36.1686 24.0943 36.9762 22.8436 37.5572C21.6027 38.1284 20.1205 38.414 18.3971 38.414Z" fill="#171616"/>
<path d="M13.0495 38.414H12.66V38.8035H13.0495V38.414ZM13.0495 34.4107V34.0212H12.66V34.4107H13.0495ZM21.1595 33.0221L20.8096 32.851L20.808 32.8544L21.1595 33.0221ZM21.1595 29.8904L20.7993 30.0387L20.8019 30.0446L21.1595 29.8904ZM20.1698 28.679L19.9473 28.9988L19.9521 29.002L20.1698 28.679ZM14.9994 28.2063V27.8168H14.61V28.2063H14.9994ZM14.9994 45.7116V46.1011H15.3889V45.7116H14.9994ZM9.81433 45.7116H9.42485V46.1011H9.81433V45.7116ZM9.81433 24.203V23.8135H9.42485V24.203H9.81433ZM22.8436 25.1484L22.6672 25.4957L22.6683 25.4962L22.8436 25.1484ZM25.7242 27.7484L25.3913 27.9505L25.3921 27.9518L25.7242 27.7484ZM22.8436 37.5572L23.0064 37.911L23.0077 37.9105L22.8436 37.5572ZM18.3971 38.0246H13.0495V38.8035H18.3971V38.0246ZM13.439 38.414V34.4107H12.66V38.414H13.439ZM13.0495 34.8002H18.3971V34.0212H13.0495V34.8002ZM18.3971 34.8002C19.1655 34.8002 19.8269 34.671 20.3558 34.3836L19.9838 33.6992C19.6066 33.9042 19.0862 34.0212 18.3971 34.0212V34.8002ZM20.3558 34.3836C20.8753 34.1012 21.2662 33.7029 21.511 33.1899L20.808 32.8544C20.6393 33.2079 20.3703 33.4892 19.9838 33.6992L20.3558 34.3836ZM21.5094 33.1932C21.7551 32.6907 21.874 32.1338 21.874 31.5301H21.095C21.095 32.0294 20.9973 32.4671 20.8096 32.8511L21.5094 33.1932ZM21.874 31.5301C21.874 30.8905 21.7565 30.2909 21.5172 29.7361L20.8019 30.0446C20.9959 30.4944 21.095 30.988 21.095 31.5301H21.874ZM21.5197 29.7421C21.2834 29.1684 20.9037 28.704 20.3874 28.3561L19.9521 29.002C20.3419 29.2647 20.622 29.6078 20.7994 30.0387L21.5197 29.7421ZM20.3922 28.3593C19.8559 27.9862 19.1802 27.8168 18.3971 27.8168V28.5958C19.0715 28.5958 19.5776 28.7415 19.9474 28.9988L20.3922 28.3593ZM18.3971 27.8168H14.9994V28.5958H18.3971V27.8168ZM14.61 28.2063V45.7116H15.3889V28.2063H14.61ZM14.9994 45.3221H9.81433V46.1011H14.9994V45.3221ZM10.2038 45.7116V24.203H9.42485V45.7116H10.2038ZM9.81433 24.5925H18.3971V23.8135H9.81433V24.5925ZM18.3971 24.5925C20.0736 24.5925 21.4925 24.899 22.6672 25.4957L23.02 24.8012C21.7129 24.1373 20.1675 23.8135 18.3971 23.8135V24.5925ZM22.6683 25.4962C23.8597 26.0966 24.7627 26.9152 25.3913 27.9505L26.0571 27.5462C25.3463 26.3756 24.329 25.4608 23.0189 24.8006L22.6683 25.4962ZM25.3921 27.9518C26.0206 28.9778 26.3392 30.1568 26.3392 31.5006H27.1182C27.1182 30.0278 26.7671 28.7053 26.0563 27.5449L25.3921 27.9518ZM26.3392 31.5006C26.3392 32.8239 26.0211 33.9596 25.3973 34.9229L26.0511 35.3463C26.7667 34.2414 27.1182 32.9544 27.1182 31.5006H26.3392ZM25.3973 34.9229C24.7721 35.8882 23.8719 36.6501 22.6795 37.204L23.0077 37.9105C24.3167 37.3023 25.3369 36.4491 26.0511 35.3463L25.3973 34.9229ZM22.6807 37.2035C21.5024 37.7458 20.0786 38.0246 18.3971 38.0246V38.8035C20.1625 38.8035 21.703 38.5111 23.0064 37.911L22.6807 37.2035Z" fill="black"/>
</g>
<g id="ower">
<path d="M26.3416 40.8345V40.6277C26.3416 39.8464 26.4532 39.1274 26.6764 38.4709C26.8996 37.8078 27.2246 37.2333 27.6514 36.7474C28.0782 36.2616 28.6034 35.8841 29.2271 35.6149C29.8508 35.3391 30.5665 35.2013 31.374 35.2013C32.1816 35.2013 32.9005 35.3391 33.5308 35.6149C34.1611 35.8841 34.6896 36.2616 35.1164 36.7474C35.5497 37.2333 35.878 37.8078 36.1012 38.4709C36.3244 39.1274 36.436 39.8464 36.436 40.6277V40.8345C36.436 41.6092 36.3244 42.3281 36.1012 42.9912C35.878 43.6478 35.5497 44.2223 35.1164 44.7147C34.6896 45.2005 34.1644 45.578 33.5407 45.8472C32.9169 46.1164 32.2013 46.251 31.3937 46.251C30.5862 46.251 29.8673 46.1164 29.237 45.8472C28.6132 45.578 28.0847 45.2005 27.6514 44.7147C27.2246 44.2223 26.8996 43.6478 26.6764 42.9912C26.4532 42.3281 26.3416 41.6092 26.3416 40.8345ZM29.1779 40.6277V40.8345C29.1779 41.2809 29.2173 41.6978 29.2961 42.0852C29.3748 42.4726 29.4996 42.814 29.6703 43.1094C29.8476 43.3983 30.0774 43.6248 30.3597 43.7889C30.642 43.9531 30.9867 44.0352 31.3937 44.0352C31.7877 44.0352 32.1258 43.9531 32.4081 43.7889C32.6904 43.6248 32.9169 43.3983 33.0876 43.1094C33.2583 42.814 33.3831 42.4726 33.4619 42.0852C33.5472 41.6978 33.5899 41.2809 33.5899 40.8345V40.6277C33.5899 40.1943 33.5472 39.7873 33.4619 39.4065C33.3831 39.0191 33.2551 38.6777 33.0778 38.3822C32.9071 38.0802 32.6806 37.8439 32.3983 37.6732C32.1159 37.5025 31.7745 37.4171 31.374 37.4171C30.9735 37.4171 30.6321 37.5025 30.3498 37.6732C30.0741 37.8439 29.8476 38.0802 29.6703 38.3822C29.4996 38.6777 29.3748 39.0191 29.2961 39.4065C29.2173 39.7873 29.1779 40.1943 29.1779 40.6277ZM41.2223 43.2965L43.4382 35.3982H45.2404L44.6593 38.5004L42.4435 46.054H40.9367L41.2223 43.2965ZM40.0996 35.3982L41.6852 43.2867L41.8329 46.054H40.0602L37.3618 35.3982H40.0996ZM47.2691 43.1587L48.8153 35.3982H51.563L48.8646 46.054H47.1017L47.2691 43.1587ZM45.4866 35.3982L47.6926 43.2374L47.9979 46.054H46.4813L44.2654 38.5103L43.7041 35.3982H45.4866ZM57.8954 46.251C57.0682 46.251 56.3263 46.1197 55.6697 45.8571C55.0132 45.5879 54.4551 45.2169 53.9955 44.7442C53.5425 44.2715 53.1945 43.7233 52.9516 43.0996C52.7087 42.4693 52.5872 41.7996 52.5872 41.0905V40.6966C52.5872 39.889 52.7021 39.1504 52.9319 38.4807C53.1617 37.811 53.49 37.23 53.9167 36.7376C54.35 36.2452 54.8753 35.8677 55.4924 35.605C56.1096 35.3359 56.8055 35.2013 57.5803 35.2013C58.3353 35.2013 59.005 35.326 59.5893 35.5755C60.1737 35.825 60.6628 36.1795 61.0567 36.6391C61.4572 37.0987 61.7592 37.6502 61.9628 38.2936C62.1663 38.9305 62.268 39.6395 62.268 40.4208V41.6026H53.7985V39.7118H59.481V39.4951C59.481 39.1012 59.4088 38.7499 59.2643 38.4413C59.1265 38.1262 58.9164 37.8767 58.634 37.6929C58.3517 37.509 57.9906 37.4171 57.5507 37.4171C57.1765 37.4171 56.8548 37.4992 56.5856 37.6633C56.3164 37.8275 56.0965 38.0573 55.9258 38.3527C55.7616 38.6482 55.6369 38.9961 55.5515 39.3966C55.4727 39.7905 55.4334 40.2239 55.4334 40.6966V41.0905C55.4334 41.5173 55.4924 41.9112 55.6106 42.2723C55.7354 42.6334 55.9094 42.9453 56.1326 43.2079C56.3624 43.4705 56.6381 43.674 56.9598 43.8185C57.2881 43.9629 57.6591 44.0352 58.0727 44.0352C58.5848 44.0352 59.0608 43.9367 59.5007 43.7397C59.9471 43.5362 60.3312 43.2309 60.6529 42.8238L62.0317 44.3208C61.8085 44.6425 61.5032 44.951 61.1158 45.2465C60.735 45.5419 60.2754 45.7849 59.737 45.9753C59.1987 46.1591 58.5848 46.251 57.8954 46.251ZM66.7195 37.7224V46.054H63.8832V35.3982H66.552L66.7195 37.7224ZM69.93 35.3293L69.8808 37.9588C69.7429 37.9391 69.5755 37.9227 69.3785 37.9095C69.1881 37.8898 69.0141 37.88 68.8565 37.88C68.456 37.88 68.1081 37.9325 67.8126 38.0376C67.5237 38.136 67.2808 38.2838 67.0839 38.4807C66.8935 38.6777 66.749 38.9173 66.6505 39.1997C66.5586 39.482 66.5061 39.8037 66.493 40.1648L65.9218 39.9875C65.9218 39.2981 65.9907 38.6646 66.1286 38.0868C66.2664 37.5025 66.4667 36.9936 66.7293 36.5603C66.9985 36.127 67.3268 35.7922 67.7141 35.5558C68.1015 35.3194 68.5447 35.2013 69.0437 35.2013C69.2012 35.2013 69.3621 35.2144 69.5262 35.2407C69.6904 35.2603 69.825 35.2899 69.93 35.3293Z" fill="white"/>
<path d="M26.6764 38.4709L27.0452 38.5963L27.0455 38.5951L26.6764 38.4709ZM27.6514 36.7474L27.3588 36.4904L27.6514 36.7474ZM29.2271 35.6149L29.3815 35.9725L29.3846 35.9711L29.2271 35.6149ZM33.5308 35.6149L33.3747 35.9717L33.3778 35.9731L33.5308 35.6149ZM35.1164 36.7474L34.8238 37.0045L34.8257 37.0067L35.1164 36.7474ZM36.1012 38.4709L35.7321 38.5951L35.7325 38.5963L36.1012 38.4709ZM36.1012 42.9912L36.47 43.1166L36.4703 43.1155L36.1012 42.9912ZM35.1164 44.7147L34.824 44.4574L34.8238 44.4577L35.1164 44.7147ZM33.5407 45.8472L33.3863 45.4896L33.5407 45.8472ZM29.237 45.8472L29.0826 46.2048L29.084 46.2054L29.237 45.8472ZM27.6514 44.7147L27.357 44.9698L27.3607 44.9739L27.6514 44.7147ZM26.6764 42.9912L26.3073 43.1155L26.3077 43.1166L26.6764 42.9912ZM29.6703 43.1094L29.3329 43.3043L29.3383 43.3131L29.6703 43.1094ZM33.0876 43.1094L33.423 43.3076L33.4249 43.3043L33.0876 43.1094ZM33.4619 42.0852L33.0815 42.0014L33.0802 42.0076L33.4619 42.0852ZM33.4619 39.4065L33.0801 39.4841L33.0818 39.4917L33.4619 39.4065ZM33.0778 38.3822L32.7386 38.574L32.7438 38.5826L33.0778 38.3822ZM30.3498 37.6732L30.1483 37.3399L30.1448 37.342L30.3498 37.6732ZM29.6703 38.3822L29.3344 38.1851L29.3331 38.1874L29.6703 38.3822ZM29.2961 39.4065L29.6775 39.4854L29.6777 39.4841L29.2961 39.4065ZM26.7311 40.8345V40.6277H25.9521V40.8345H26.7311ZM26.7311 40.6277C26.7311 39.8837 26.8373 39.2077 27.0452 38.5963L26.3077 38.3455C26.0691 39.0472 25.9521 39.809 25.9521 40.6277H26.7311ZM27.0455 38.5951C27.2537 37.9769 27.554 37.4485 27.944 37.0045L27.3588 36.4904C26.8953 37.0181 26.5456 37.6387 26.3073 38.3466L27.0455 38.5951ZM27.944 37.0045C28.3308 36.5642 28.808 36.22 29.3814 35.9725L29.0728 35.2573C28.3988 35.5482 27.8255 35.959 27.3588 36.4904L27.944 37.0045ZM29.3846 35.9711C29.9504 35.7209 30.6109 35.5907 31.374 35.5907V34.8118C30.5221 34.8118 29.7512 34.9573 29.0696 35.2587L29.3846 35.9711ZM31.374 35.5907C32.1371 35.5907 32.8014 35.7209 33.3747 35.9717L33.6869 35.2581C32.9996 34.9574 32.2261 34.8118 31.374 34.8118V35.5907ZM33.3778 35.9731C33.9579 36.2208 34.4377 36.5649 34.8238 37.0045L35.409 36.4904C34.9416 35.9582 34.3643 35.5474 33.6838 35.2567L33.3778 35.9731ZM34.8257 37.0067C35.2215 37.4504 35.5244 37.9781 35.7321 38.5951L36.4703 38.3466C36.2316 37.6374 35.8779 37.0161 35.407 36.4882L34.8257 37.0067ZM35.7325 38.5963C35.9403 39.2077 36.0466 39.8837 36.0466 40.6277H36.8255C36.8255 39.809 36.7085 39.0472 36.47 38.3455L35.7325 38.5963ZM36.0466 40.6277V40.8345H36.8255V40.6277H36.0466ZM36.0466 40.8345C36.0466 41.5714 35.9405 42.248 35.7321 42.867L36.4703 43.1155C36.7084 42.4083 36.8255 41.6469 36.8255 40.8345H36.0466ZM35.7325 42.8659C35.5248 43.4767 35.2215 44.0057 34.824 44.4574L35.4088 44.972C35.8779 44.4389 36.2312 43.8189 36.47 43.1166L35.7325 42.8659ZM34.8238 44.4577C34.437 44.898 33.9598 45.2421 33.3863 45.4896L33.695 46.2048C34.3689 45.914 34.9422 45.5031 35.409 44.9717L34.8238 44.4577ZM33.3863 45.4896C32.8196 45.7342 32.1581 45.8615 31.3937 45.8615V46.6405C32.2445 46.6405 33.0142 46.4986 33.695 46.2048L33.3863 45.4896ZM31.3937 45.8615C30.6295 45.8615 29.964 45.7342 29.3899 45.4891L29.084 46.2054C29.7705 46.4986 30.5428 46.6405 31.3937 46.6405V45.8615ZM29.3913 45.4896C28.8173 45.2419 28.336 44.8971 27.9421 44.4554L27.3607 44.9739C27.8334 45.5039 28.4092 45.9142 29.0826 46.2048L29.3913 45.4896ZM27.9457 44.4596C27.554 44.0076 27.2532 43.4779 27.0452 42.8659L26.3077 43.1166C26.546 43.8177 26.8953 44.4369 27.3571 44.9698L27.9457 44.4596ZM27.0455 42.867C26.8372 42.248 26.7311 41.5714 26.7311 40.8345H25.9521C25.9521 41.6469 26.0692 42.4083 26.3073 43.1155L27.0455 42.867ZM28.7884 40.6277V40.8345H29.5674V40.6277H28.7884ZM28.7884 40.8345C28.7884 41.3037 28.8298 41.7469 28.9144 42.1628L29.6777 42.0076C29.6047 41.6488 29.5674 41.2581 29.5674 40.8345H28.7884ZM28.9144 42.1628C29.0003 42.585 29.1383 42.9671 29.3331 43.3043L30.0075 42.9146C29.8609 42.6608 29.7494 42.3601 29.6777 42.0076L28.9144 42.1628ZM29.3383 43.3131C29.548 43.6548 29.8237 43.9279 30.1639 44.1257L30.5554 43.4522C30.331 43.3217 30.1471 43.1418 30.0022 42.9057L29.3383 43.3131ZM30.1639 44.1257C30.5187 44.3319 30.9347 44.4246 31.3937 44.4246V43.6457C31.0387 43.6457 30.7653 43.5743 30.5554 43.4522L30.1639 44.1257ZM31.3937 44.4246C31.8422 44.4246 32.2509 44.3308 32.6039 44.1257L32.2123 43.4522C32.0006 43.5753 31.7331 43.6457 31.3937 43.6457V44.4246ZM32.6039 44.1257C32.9454 43.9271 33.2193 43.6522 33.4229 43.3076L32.7523 42.9113C32.6145 43.1444 32.4354 43.3225 32.2123 43.4522L32.6039 44.1257ZM33.4249 43.3043C33.6197 42.9671 33.7577 42.585 33.8435 42.1628L33.0802 42.0076C33.0085 42.3601 32.897 42.6608 32.7504 42.9146L33.4249 43.3043ZM33.8422 42.169C33.9343 41.7509 33.9794 41.3056 33.9794 40.8345H33.2004C33.2004 41.2562 33.1601 41.6447 33.0815 42.0014L33.8422 42.169ZM33.9794 40.8345V40.6277H33.2004V40.8345H33.9794ZM33.9794 40.6277C33.9794 40.1688 33.9342 39.7329 33.8419 39.3213L33.0818 39.4917C33.1603 39.8416 33.2004 40.2199 33.2004 40.6277H33.9794ZM33.8435 39.3288C33.7572 38.9044 33.6149 38.5204 33.4118 38.1819L32.7438 38.5826C32.8953 38.835 33.009 39.1338 33.0802 39.4841L33.8435 39.3288ZM33.4169 38.1906C33.215 37.8335 32.9423 37.547 32.5998 37.3399L32.1967 38.0065C32.4188 38.1407 32.5992 38.327 32.7387 38.5739L33.4169 38.1906ZM32.5998 37.3399C32.2448 37.1253 31.8304 37.0276 31.374 37.0276V37.8066C31.7187 37.8066 31.987 37.8797 32.1967 38.0065L32.5998 37.3399ZM31.374 37.0276C30.9177 37.0276 30.5032 37.1253 30.1483 37.3399L30.5513 38.0065C30.761 37.8797 31.0294 37.8066 31.374 37.8066V37.0276ZM30.1448 37.342C29.8109 37.5487 29.5411 37.8329 29.3344 38.1851L30.0062 38.5794C30.154 38.3276 30.3372 38.1391 30.5548 38.0043L30.1448 37.342ZM29.3331 38.1874C29.1383 38.5245 29.0003 38.9067 28.9144 39.3288L29.6777 39.4841C29.7494 39.1315 29.8609 38.8309 30.0075 38.5771L29.3331 38.1874ZM28.9147 39.3276C28.8299 39.7371 28.7884 40.1708 28.7884 40.6277H29.5674C29.5674 40.2179 29.6046 39.8375 29.6775 39.4854L28.9147 39.3276ZM41.2223 43.2965L40.8473 43.1913L40.8383 43.2233L40.8349 43.2564L41.2223 43.2965ZM43.4382 35.3982V35.0087H43.1429L43.0632 35.293L43.4382 35.3982ZM45.2404 35.3982L45.6232 35.4699L45.7096 35.0087H45.2404V35.3982ZM44.6593 38.5004L45.0331 38.6101L45.0386 38.5913L45.0422 38.5721L44.6593 38.5004ZM42.4435 46.054V46.4435H42.7351L42.8172 46.1637L42.4435 46.054ZM40.9367 46.054L40.5493 46.0139L40.5048 46.4435H40.9367V46.054ZM40.0996 35.3982L40.4814 35.3215L40.4186 35.0087H40.0996V35.3982ZM41.6852 43.2867L42.0741 43.2659L42.0726 43.2377L42.067 43.2099L41.6852 43.2867ZM41.8329 46.054V46.4435H42.2437L42.2218 46.0333L41.8329 46.054ZM40.0602 46.054L39.6826 46.1497L39.7571 46.4435H40.0602V46.054ZM37.3618 35.3982V35.0087H36.8614L36.9842 35.4938L37.3618 35.3982ZM47.2691 43.1587L46.8872 43.0826L46.8819 43.1091L46.8803 43.1362L47.2691 43.1587ZM48.8153 35.3982V35.0087H48.4958L48.4333 35.3221L48.8153 35.3982ZM51.563 35.3982L51.9405 35.4938L52.0634 35.0087H51.563V35.3982ZM48.8646 46.054V46.4435H49.1677L49.2421 46.1497L48.8646 46.054ZM47.1017 46.054L46.7129 46.0316L46.6891 46.4435H47.1017V46.054ZM45.4866 35.3982L45.8615 35.2927L45.7816 35.0087H45.4866V35.3982ZM47.6926 43.2374L48.0798 43.1955L48.0763 43.1632L48.0675 43.1319L47.6926 43.2374ZM47.9979 46.054V46.4435H48.4319L48.3851 46.0121L47.9979 46.054ZM46.4813 46.054L46.1076 46.1638L46.1897 46.4435H46.4813V46.054ZM44.2654 38.5103L43.8821 38.5794L43.8858 38.6L43.8917 38.62L44.2654 38.5103ZM43.7041 35.3982V35.0087H43.2381L43.3208 35.4674L43.7041 35.3982ZM41.5973 43.4017L43.8132 35.5034L43.0632 35.293L40.8473 43.1913L41.5973 43.4017ZM43.4382 35.7877H45.2404V35.0087H43.4382V35.7877ZM44.8576 35.3265L44.2765 38.4287L45.0422 38.5721L45.6232 35.4699L44.8576 35.3265ZM44.2856 38.3908L42.0698 45.9444L42.8172 46.1637L45.0331 38.6101L44.2856 38.3908ZM42.4435 45.6646H40.9367V46.4435H42.4435V45.6646ZM41.3241 46.0942L41.6097 43.3367L40.8349 43.2564L40.5493 46.0139L41.3241 46.0942ZM39.7178 35.475L41.3033 43.3634L42.067 43.2099L40.4814 35.3215L39.7178 35.475ZM41.2962 43.3074L41.444 46.0748L42.2218 46.0333L42.0741 43.2659L41.2962 43.3074ZM41.8329 45.6646H40.0602V46.4435H41.8329V45.6646ZM40.4378 45.9584L37.7393 35.3026L36.9842 35.4938L39.6826 46.1497L40.4378 45.9584ZM37.3618 35.7877H40.0996V35.0087H37.3618V35.7877ZM47.6511 43.2348L49.1973 35.4743L48.4333 35.3221L46.8872 43.0826L47.6511 43.2348ZM48.8153 35.7877H51.563V35.0087H48.8153V35.7877ZM51.1854 35.3026L48.487 45.9584L49.2421 46.1497L51.9405 35.4938L51.1854 35.3026ZM48.8646 45.6646H47.1017V46.4435H48.8646V45.6646ZM47.4905 46.0765L47.658 43.1811L46.8803 43.1362L46.7129 46.0316L47.4905 46.0765ZM45.1117 35.5037L47.3177 43.3429L48.0675 43.1319L45.8615 35.2927L45.1117 35.5037ZM47.3054 43.2794L47.6107 46.096L48.3851 46.0121L48.0798 43.1955L47.3054 43.2794ZM47.9979 45.6646H46.4813V46.4435H47.9979V45.6646ZM46.855 45.9443L44.6391 38.4005L43.8917 38.62L46.1076 46.1638L46.855 45.9443ZM44.6487 38.4411L44.0874 35.3291L43.3208 35.4674L43.8821 38.5794L44.6487 38.4411ZM43.7041 35.7877H45.4866V35.0087H43.7041V35.7877ZM55.6697 45.8571L55.522 46.2175L55.5251 46.2187L55.6697 45.8571ZM53.9955 44.7442L53.7143 45.0137L53.7163 45.0157L53.9955 44.7442ZM52.9516 43.0996L52.5882 43.2396L52.5887 43.2409L52.9516 43.0996ZM52.9319 38.4807L52.5635 38.3543L52.9319 38.4807ZM53.9167 36.7376L53.6243 36.4803L53.6224 36.4825L53.9167 36.7376ZM55.4924 35.605L55.645 35.9634L55.6482 35.962L55.4924 35.605ZM59.5893 35.5755L59.4364 35.9337L59.4364 35.9337L59.5893 35.5755ZM61.0567 36.6391L60.761 36.8926L60.7631 36.895L61.0567 36.6391ZM61.9628 38.2936L61.5914 38.4111L61.5918 38.4122L61.9628 38.2936ZM62.268 41.6026V41.9921H62.6575V41.6026H62.268ZM53.7985 41.6026H53.4091V41.9921H53.7985V41.6026ZM53.7985 39.7118V39.3223H53.4091V39.7118H53.7985ZM59.481 39.7118V40.1012H59.8705V39.7118H59.481ZM59.2643 38.4413L58.9074 38.5975L58.9116 38.6065L59.2643 38.4413ZM55.9258 38.3527L55.5885 38.1578L55.5853 38.1636L55.9258 38.3527ZM55.5515 39.3966L55.1706 39.3154L55.1696 39.3202L55.5515 39.3966ZM55.6106 42.2723L55.2404 42.3935L55.2425 42.3995L55.6106 42.2723ZM56.1326 43.2079L55.8358 43.4602L55.8395 43.4644L56.1326 43.2079ZM56.9598 43.8185L56.8003 44.1738L56.803 44.175L56.9598 43.8185ZM59.5007 43.7397L59.6599 44.0952L59.6622 44.0941L59.5007 43.7397ZM60.6529 42.8238L60.9394 42.56L60.6303 42.2243L60.3474 42.5823L60.6529 42.8238ZM62.0317 44.3208L62.3517 44.5428L62.5296 44.2864L62.3182 44.0569L62.0317 44.3208ZM61.1158 45.2465L60.8796 44.9368L60.8771 44.9388L61.1158 45.2465ZM59.737 45.9753L59.8629 46.3439L59.8669 46.3425L59.737 45.9753ZM57.8954 45.8615C57.1094 45.8615 56.4178 45.7368 55.8144 45.4955L55.5251 46.2187C56.2347 46.5026 57.0269 46.6405 57.8954 46.6405V45.8615ZM55.8175 45.4967C55.2066 45.2462 54.6943 44.9043 54.2748 44.4727L53.7163 45.0157C54.2159 45.5296 54.8198 45.9295 55.522 46.2174L55.8175 45.4967ZM54.2767 44.4747C53.8599 44.0398 53.5393 43.5354 53.3145 42.9582L52.5887 43.2409C52.8497 43.9112 53.2251 44.5032 53.7143 45.0137L54.2767 44.4747ZM53.315 42.9595C53.0902 42.3761 52.9767 41.7541 52.9767 41.0905H52.1977C52.1977 41.8451 52.3272 42.5625 52.5882 43.2396L53.315 42.9595ZM52.9767 41.0905V40.6966H52.1977V41.0905H52.9767ZM52.9767 40.6966C52.9767 39.9261 53.0863 39.2309 53.3003 38.6071L52.5635 38.3543C52.3179 39.07 52.1977 39.852 52.1977 40.6966H52.9767ZM53.3003 38.6071C53.5153 37.9806 53.8197 37.4442 54.211 36.9927L53.6224 36.4825C53.1602 37.0158 52.8081 37.6415 52.5635 38.3543L53.3003 38.6071ZM54.2091 36.9949C54.6031 36.5472 55.0801 36.2038 55.6449 35.9634L55.3399 35.2467C54.6704 35.5316 54.097 35.9431 53.6243 36.4803L54.2091 36.9949ZM55.6482 35.962C56.2093 35.7173 56.8511 35.5907 57.5803 35.5907V34.8118C56.76 34.8118 56.0099 34.9544 55.3367 35.248L55.6482 35.962ZM57.5803 35.5907C58.2925 35.5907 58.9086 35.7083 59.4364 35.9337L59.7423 35.2173C59.1014 34.9437 58.3781 34.8118 57.5803 34.8118V35.5907ZM59.4364 35.9337C59.9685 36.1609 60.4079 36.4807 60.761 36.8926L61.3524 36.3856C60.9176 35.8784 60.3788 35.4891 59.7423 35.2173L59.4364 35.9337ZM60.7631 36.895C61.1249 37.3101 61.4023 37.8132 61.5914 38.4111L62.3341 38.1761C62.1162 37.4872 61.7896 36.8872 61.3503 36.3832L60.7631 36.895ZM61.5918 38.4122C61.7812 39.0049 61.8786 39.6732 61.8786 40.4208H62.6575C62.6575 39.6059 62.5514 38.8561 62.3337 38.175L61.5918 38.4122ZM61.8786 40.4208V41.6026H62.6575V40.4208H61.8786ZM62.268 41.2132H53.7985V41.9921H62.268V41.2132ZM54.188 41.6026V39.7118H53.4091V41.6026H54.188ZM53.7985 40.1012H59.481V39.3223H53.7985V40.1012ZM59.8705 39.7118V39.4951H59.0915V39.7118H59.8705ZM59.8705 39.4951C59.8705 39.053 59.7892 38.644 59.6171 38.2762L58.9116 38.6065C59.0283 38.8559 59.0915 39.1494 59.0915 39.4951H59.8705ZM59.6212 38.2852C59.4535 37.902 59.194 37.5927 58.8466 37.3665L58.4215 38.0192C58.6387 38.1607 58.7994 38.3504 58.9075 38.5974L59.6212 38.2852ZM58.8466 37.3665C58.4843 37.1306 58.0434 37.0276 57.5507 37.0276V37.8066C57.9379 37.8066 58.2191 37.8874 58.4215 38.0192L58.8466 37.3665ZM57.5507 37.0276C57.1185 37.0276 56.7237 37.123 56.3828 37.3308L56.7884 37.9959C56.9859 37.8754 57.2345 37.8066 57.5507 37.8066V37.0276ZM56.3828 37.3308C56.0535 37.5316 55.7891 37.8108 55.5885 38.1579L56.263 38.5475C56.4039 38.3038 56.5793 38.1233 56.7884 37.9959L56.3828 37.3308ZM55.5853 38.1636C55.3989 38.499 55.2624 38.8848 55.1706 39.3154L55.9325 39.4778C56.0114 39.1074 56.1243 38.7973 56.2662 38.5418L55.5853 38.1636ZM55.1696 39.3202C55.085 39.7433 55.0439 40.2026 55.0439 40.6966H55.8228C55.8228 40.2452 55.8605 39.8378 55.9334 39.473L55.1696 39.3202ZM55.0439 40.6966V41.0905H55.8228V40.6966H55.0439ZM55.0439 41.0905C55.0439 41.5534 55.108 41.9888 55.2405 42.3935L55.9808 42.1512C55.8769 41.8337 55.8228 41.4811 55.8228 41.0905H55.0439ZM55.2425 42.3995C55.3813 42.8014 55.578 43.1568 55.8358 43.4601L56.4293 42.9557C56.2407 42.7337 56.0894 42.4654 55.9788 42.1451L55.2425 42.3995ZM55.8395 43.4644C56.1066 43.7696 56.428 44.0067 56.8003 44.1738L57.1194 43.4632C56.8482 43.3414 56.6182 43.1714 56.4257 42.9514L55.8395 43.4644ZM56.803 44.175C57.1877 44.3443 57.6133 44.4246 58.0727 44.4246V43.6457C57.7048 43.6457 57.3885 43.5816 57.1167 43.462L56.803 44.175ZM58.0727 44.4246C58.6362 44.4246 59.1668 44.3159 59.6599 44.0952L59.3415 43.3842C58.9548 43.5574 58.5334 43.6457 58.0727 43.6457V44.4246ZM59.6622 44.0941C60.1682 43.8634 60.6007 43.518 60.9585 43.0653L60.3474 42.5823C60.0617 42.9437 59.7261 43.2089 59.3391 43.3853L59.6622 44.0941ZM60.3665 43.0877L61.7452 44.5846L62.3182 44.0569L60.9394 42.56L60.3665 43.0877ZM61.7117 44.0987C61.5165 44.38 61.2422 44.6603 60.8796 44.9368L61.352 45.5562C61.7641 45.2418 62.1004 44.9049 62.3517 44.5428L61.7117 44.0987ZM60.8771 44.9388C60.5346 45.2045 60.1134 45.4291 59.6072 45.6081L59.8669 46.3425C60.4375 46.1407 60.9354 45.8794 61.3546 45.5542L60.8771 44.9388ZM59.6112 45.6067C59.1209 45.7741 58.5508 45.8615 57.8954 45.8615V46.6405C58.6188 46.6405 59.2765 46.5441 59.8629 46.3438L59.6112 45.6067ZM66.7195 37.7224H67.1089V37.7084L67.1079 37.6944L66.7195 37.7224ZM66.7195 46.054V46.4435H67.1089V46.054H66.7195ZM63.8832 46.054H63.4937V46.4435H63.8832V46.054ZM63.8832 35.3982V35.0087H63.4937V35.3982H63.8832ZM66.552 35.3982L66.9405 35.3702L66.9145 35.0087H66.552V35.3982ZM69.93 35.3293L70.3194 35.3366L70.3246 35.0613L70.0668 34.9646L69.93 35.3293ZM69.8808 37.9588L69.8257 38.3443L70.2619 38.4067L70.2702 37.9661L69.8808 37.9588ZM69.3785 37.9095L69.3384 38.2969L69.3455 38.2977L69.3526 38.2981L69.3785 37.9095ZM67.8126 38.0376L67.9383 38.4062L67.9431 38.4045L67.8126 38.0376ZM67.0839 38.4807L66.8084 38.2053L66.8038 38.21L67.0839 38.4807ZM66.6505 39.1997L66.2827 39.0713L66.2802 39.0791L66.6505 39.1997ZM66.493 40.1648L66.3775 40.5368L66.8637 40.6876L66.8822 40.1789L66.493 40.1648ZM65.9218 39.9875H65.5323V40.2744L65.8063 40.3595L65.9218 39.9875ZM66.1286 38.0868L66.5074 38.1772L66.5076 38.1762L66.1286 38.0868ZM66.7293 36.5603L66.3985 36.3548L66.3962 36.3585L66.7293 36.5603ZM67.7141 35.5558L67.5113 35.2233L67.7141 35.5558ZM69.5262 35.2407L69.4647 35.6252L69.4722 35.6264L69.4798 35.6274L69.5262 35.2407ZM66.33 37.7224V46.054H67.1089V37.7224H66.33ZM66.7195 45.6646H63.8832V46.4435H66.7195V45.6646ZM64.2726 46.054V35.3982H63.4937V46.054H64.2726ZM63.8832 35.7877H66.552V35.0087H63.8832V35.7877ZM66.1636 35.4262L66.331 37.7504L67.1079 37.6944L66.9405 35.3702L66.1636 35.4262ZM69.5406 35.322L69.4914 37.9515L70.2702 37.9661L70.3194 35.3366L69.5406 35.322ZM69.9358 37.5732C69.7852 37.5517 69.6075 37.5345 69.4044 37.5209L69.3526 38.2981C69.5435 38.3109 69.7005 38.3265 69.8257 38.3443L69.9358 37.5732ZM69.4186 37.5221C69.2176 37.5013 69.03 37.4905 68.8565 37.4905V38.2695C68.9983 38.2695 69.1586 38.2783 69.3384 38.2969L69.4186 37.5221ZM68.8565 37.4905C68.4233 37.4905 68.0293 37.5472 67.6821 37.6706L67.9431 38.4045C68.1869 38.3179 68.4888 38.2695 68.8565 38.2695V37.4905ZM67.6869 37.6689C67.3472 37.7848 67.0514 37.9623 66.8084 38.2053L67.3593 38.7561C67.5102 38.6052 67.7003 38.4873 67.9383 38.4062L67.6869 37.6689ZM66.8038 38.21C66.5707 38.4512 66.3981 38.7407 66.2828 39.0714L67.0183 39.3279C67.0999 39.094 67.2162 38.9042 67.3639 38.7514L66.8038 38.21ZM66.2802 39.0791C66.1749 39.4023 66.1179 39.7609 66.1037 40.1506L66.8822 40.1789C66.8943 39.8465 66.9423 39.5616 67.0209 39.3202L66.2802 39.0791ZM66.6084 39.7928L66.0372 39.6155L65.8063 40.3595L66.3775 40.5368L66.6084 39.7928ZM66.3112 39.9875C66.3112 39.3238 66.3776 38.7211 66.5074 38.1772L65.7497 37.9964C65.6038 38.6081 65.5323 39.2724 65.5323 39.9875H66.3112ZM66.5076 38.1762C66.6378 37.6244 66.8244 37.1549 67.0624 36.7622L66.3962 36.3585C66.109 36.8324 65.8951 37.3805 65.7495 37.9974L66.5076 38.1762ZM67.0602 36.7658C67.3012 36.3778 67.5878 36.0891 67.917 35.8883L67.5113 35.2233C67.0658 35.4952 66.6958 35.8762 66.3985 36.3548L67.0602 36.7658ZM67.917 35.8883C68.2373 35.6928 68.6089 35.5907 69.0437 35.5907V34.8118C68.4805 34.8118 67.9657 34.946 67.5113 35.2233L67.917 35.8883ZM69.0437 35.5907C69.1795 35.5907 69.3198 35.6021 69.4647 35.6252L69.5878 34.8561C69.4044 34.8267 69.2229 34.8118 69.0437 34.8118V35.5907ZM69.4798 35.6274C69.6262 35.6449 69.7275 35.6693 69.7932 35.694L70.0668 34.9646C69.9224 34.9105 69.7546 34.8758 69.5726 34.8539L69.4798 35.6274Z" fill="black"/>
</g>
</g>
<g id="CP-Command-C+ommand">
<g id="C">
<path d="M13.8713 20.7172H19.0416C18.9727 22.2141 18.5689 23.5338 17.8303 24.6762C17.0917 25.8186 16.0674 26.7099 14.7576 27.35C13.4577 27.9803 11.9213 28.2954 10.1486 28.2954C8.71079 28.2954 7.42559 28.0542 6.29304 27.5716C5.17034 27.089 4.21506 26.3947 3.4272 25.4887C2.64918 24.5827 2.05336 23.4846 1.63974 22.1944C1.23596 20.9043 1.03407 19.4517 1.03407 17.8366V16.6696C1.03407 15.0545 1.24581 13.6018 1.66928 12.3117C2.1026 11.0117 2.7132 9.90874 3.50106 9.0027C4.29877 8.08681 5.25405 7.38758 6.3669 6.90502C7.47976 6.42245 8.71572 6.18117 10.0748 6.18117C11.9459 6.18117 13.5266 6.51601 14.8167 7.18569C16.1068 7.85537 17.1064 8.77619 17.8155 9.94813C18.5246 11.1102 18.9431 12.4348 19.0712 13.9219H13.9008C13.8811 13.1143 13.7433 12.4397 13.4872 11.8981C13.2311 11.3466 12.8274 10.933 12.2759 10.6572C11.7244 10.3815 10.9907 10.2436 10.0748 10.2436C9.43464 10.2436 8.87821 10.3618 8.40549 10.5981C7.93278 10.8345 7.53885 11.2087 7.2237 11.7208C6.90856 12.2329 6.6722 12.8977 6.51463 13.7151C6.3669 14.5226 6.29304 15.4976 6.29304 16.64V17.8366C6.29304 18.979 6.36198 19.954 6.49986 20.7615C6.63773 21.5691 6.85932 22.2289 7.16461 22.741C7.46991 23.2531 7.86384 23.6323 8.34641 23.8785C8.83882 24.1149 9.43956 24.233 10.1486 24.233C10.9365 24.233 11.6013 24.1099 12.1429 23.8637C12.6846 23.6077 13.1031 23.2236 13.3986 22.7115C13.694 22.1895 13.8516 21.5248 13.8713 20.7172Z" fill="#D10D0D"/>
<path d="M13.8713 20.7172V20.3277H13.4912L13.4819 20.7077L13.8713 20.7172ZM19.0416 20.7172L19.4307 20.7351L19.4494 20.3277H19.0416V20.7172ZM14.7576 27.35L14.9275 27.7005L14.9286 27.6999L14.7576 27.35ZM6.29304 27.5716L6.13924 27.9294L6.14037 27.9299L6.29304 27.5716ZM3.4272 25.4887L3.1317 25.7424L3.1333 25.7443L3.4272 25.4887ZM1.63974 22.1944L1.26803 22.3108L1.26885 22.3134L1.63974 22.1944ZM1.66928 12.3117L1.29979 12.1885L1.29923 12.1902L1.66928 12.3117ZM3.50106 9.0027L3.20736 8.74689L3.20716 8.74713L3.50106 9.0027ZM17.8155 9.94813L17.4823 10.1497L17.483 10.151L17.8155 9.94813ZM19.0712 13.9219V14.3114H19.4956L19.4592 13.8885L19.0712 13.9219ZM13.9008 13.9219L13.5115 13.9314L13.5207 14.3114H13.9008V13.9219ZM13.4872 11.8981L13.1339 12.0621L13.1351 12.0645L13.4872 11.8981ZM6.51463 13.7151L6.13217 13.6414L6.13151 13.645L6.51463 13.7151ZM8.34641 23.8785L8.16935 24.2255L8.17787 24.2296L8.34641 23.8785ZM12.1429 23.8637L12.3041 24.2183L12.3094 24.2158L12.1429 23.8637ZM13.3986 22.7115L13.7359 22.9061L13.7375 22.9033L13.3986 22.7115ZM13.8713 21.1067H19.0416V20.3277H13.8713V21.1067ZM18.6526 20.6993C18.5865 22.1345 18.2007 23.386 17.5032 24.4647L18.1574 24.8877C18.9371 23.6816 19.3589 22.2937 19.4307 20.7351L18.6526 20.6993ZM17.5032 24.4647C16.8058 25.5434 15.8375 26.3887 14.5866 27.0001L14.9286 27.6999C16.2974 27.031 17.3775 26.0938 18.1574 24.8877L17.5032 24.4647ZM14.5877 26.9996C13.3513 27.599 11.8756 27.906 10.1486 27.906V28.6849C11.9671 28.6849 13.564 28.3616 14.9275 27.7005L14.5877 26.9996ZM10.1486 27.906C8.75455 27.906 7.52258 27.6721 6.44571 27.2133L6.14037 27.9299C7.32861 28.4362 8.66703 28.6849 10.1486 28.6849V27.906ZM6.44684 27.2138C5.37694 26.7539 4.46984 26.0942 3.7211 25.2331L3.1333 25.7443C3.96028 26.6953 4.96373 27.4242 6.13924 27.9294L6.44684 27.2138ZM3.72268 25.235C2.98281 24.3733 2.41049 23.3228 2.01062 22.0755L1.26885 22.3134C1.69623 23.6464 2.31556 24.792 3.13171 25.7424L3.72268 25.235ZM2.01143 22.0781C1.62147 20.8321 1.42354 19.4197 1.42354 17.8366H0.644591C0.644591 19.4837 0.850442 20.9765 1.26804 22.3108L2.01143 22.0781ZM1.42354 17.8366V16.6696H0.644591V17.8366H1.42354ZM1.42354 16.6696C1.42354 15.0881 1.6309 13.6775 2.03933 12.4332L1.29923 12.1902C0.860714 13.5262 0.644591 15.0208 0.644591 16.6696H1.42354ZM2.03877 12.4349C2.45814 11.1768 3.0452 10.1205 3.79496 9.25826L3.20716 8.74713C2.3812 9.69698 1.74706 10.8467 1.29979 12.1885L2.03877 12.4349ZM3.79476 9.2585C4.55441 8.3863 5.46231 7.72179 6.52185 7.26234L6.21196 6.54769C5.04579 7.05337 4.04313 7.78731 3.20736 8.74689L3.79476 9.2585ZM6.52185 7.26234C7.58023 6.8034 8.76259 6.57064 10.0748 6.57064V5.79169C8.66884 5.79169 7.37929 6.0415 6.21196 6.54769L6.52185 7.26234ZM10.0748 6.57064C11.9009 6.57064 13.4162 6.89754 14.6373 7.53137L14.9962 6.84001C13.637 6.13448 11.991 5.79169 10.0748 5.79169V6.57064ZM14.6373 7.53137C15.8679 8.17018 16.8126 9.04284 17.4823 10.1497L18.1487 9.74651C17.4003 8.50953 16.3458 7.54057 14.9962 6.84001L14.6373 7.53137ZM17.483 10.151C18.1578 11.2568 18.5598 12.5224 18.6831 13.9553L19.4592 13.8885C19.3265 12.3473 18.8914 10.9636 18.148 9.74526L17.483 10.151ZM19.0712 13.5324H13.9008V14.3114H19.0712V13.5324ZM14.2902 13.9124C14.2696 13.0684 14.1252 12.3364 13.8393 11.7316L13.1351 12.0645C13.3613 12.5431 13.4927 13.1603 13.5115 13.9314L14.2902 13.9124ZM13.8405 11.7341C13.5467 11.1014 13.0792 10.6234 12.45 10.3088L12.1017 11.0056C12.5756 11.2425 12.9156 11.5918 13.1339 12.0621L13.8405 11.7341ZM12.45 10.3088C11.8246 9.99614 11.0242 9.8541 10.0748 9.8541V10.6331C10.9572 10.6331 11.6241 10.7668 12.1017 11.0056L12.45 10.3088ZM10.0748 9.8541C9.38678 9.8541 8.76836 9.98123 8.23132 10.2498L8.57967 10.9465C8.98807 10.7423 9.4825 10.6331 10.0748 10.6331V9.8541ZM8.23132 10.2498C7.68509 10.5229 7.23982 10.9515 6.892 11.5167L7.5554 11.9249C7.83787 11.4659 8.18046 11.1461 8.57967 10.9465L8.23132 10.2498ZM6.892 11.5167C6.54473 12.081 6.29549 12.7943 6.13219 13.6414L6.89706 13.7888C7.04891 13.0011 7.27239 12.3848 7.5554 11.9249L6.892 11.5167ZM6.13151 13.645C5.97828 14.4827 5.90356 15.4825 5.90356 16.64H6.68252C6.68252 15.5128 6.75553 14.5626 6.89775 13.7852L6.13151 13.645ZM5.90356 16.64V17.8366H6.68252V16.64H5.90356ZM5.90356 17.8366C5.90356 18.9931 5.97324 19.9913 6.11593 20.8271L6.88378 20.696C6.75072 19.9167 6.68252 18.9649 6.68252 17.8366H5.90356ZM6.11593 20.8271C6.25907 21.6654 6.4929 22.3749 6.83007 22.9405L7.49915 22.5416C7.22574 22.083 7.01639 21.4727 6.88378 20.696L6.11593 20.8271ZM6.83007 22.9405C7.16903 23.509 7.61499 23.9426 8.1694 24.2254L8.52341 23.5316C8.11269 23.322 7.77079 22.9972 7.49915 22.5416L6.83007 22.9405ZM8.17787 24.2296C8.73613 24.4976 9.39796 24.6225 10.1486 24.6225V23.8436C9.48117 23.8436 8.94151 23.7321 8.51494 23.5274L8.17787 24.2296ZM10.1486 24.6225C10.9749 24.6225 11.6982 24.4937 12.3041 24.2183L11.9817 23.5092C11.5043 23.7262 10.8981 23.8436 10.1486 23.8436V24.6225ZM12.3094 24.2158C12.9217 23.9264 13.4003 23.4879 13.7359 22.9061L13.0612 22.5169C12.8059 22.9593 12.4475 23.289 11.9765 23.5116L12.3094 24.2158ZM13.7375 22.9033C14.0735 22.3097 14.2399 21.577 14.2606 20.7267L13.4819 20.7077C13.4633 21.4725 13.3145 22.0693 13.0596 22.5196L13.7375 22.9033Z" fill="black"/>
</g>
<g id="ommand">
<path d="M20.5025 23.1228V22.916C20.5025 22.1347 20.6141 21.4158 20.8374 20.7592C21.0606 20.0961 21.3856 19.5216 21.8123 19.0358C22.2391 18.5499 22.7643 18.1724 23.3881 17.9032C24.0118 17.6275 24.7274 17.4896 25.535 17.4896C26.3425 17.4896 27.0615 17.6275 27.6918 17.9032C28.322 18.1724 28.8506 18.5499 29.2773 19.0358C29.7107 19.5216 30.0389 20.0961 30.2622 20.7592C30.4854 21.4158 30.597 22.1347 30.597 22.916V23.1228C30.597 23.8976 30.4854 24.6165 30.2622 25.2796C30.0389 25.9361 29.7107 26.5106 29.2773 27.003C28.8506 27.4889 28.3253 27.8664 27.7016 28.1356C27.0779 28.4048 26.3622 28.5394 25.5547 28.5394C24.7471 28.5394 24.0282 28.4048 23.3979 28.1356C22.7742 27.8664 22.2457 27.4889 21.8123 27.003C21.3856 26.5106 21.0606 25.9361 20.8374 25.2796C20.6141 24.6165 20.5025 23.8976 20.5025 23.1228ZM23.3388 22.916V23.1228C23.3388 23.5693 23.3782 23.9862 23.457 24.3736C23.5358 24.7609 23.6605 25.1023 23.8312 25.3978C24.0085 25.6867 24.2383 25.9132 24.5206 26.0773C24.8029 26.2414 25.1476 26.3235 25.5547 26.3235C25.9486 26.3235 26.2867 26.2414 26.5691 26.0773C26.8514 25.9132 27.0779 25.6867 27.2486 25.3978C27.4193 25.1023 27.544 24.7609 27.6228 24.3736C27.7082 23.9862 27.7508 23.5693 27.7508 23.1228V22.916C27.7508 22.4827 27.7082 22.0756 27.6228 21.6948C27.544 21.3075 27.416 20.9661 27.2387 20.6706C27.068 20.3686 26.8415 20.1322 26.5592 19.9615C26.2769 19.7908 25.9355 19.7055 25.535 19.7055C25.1345 19.7055 24.7931 19.7908 24.5108 19.9615C24.235 20.1322 24.0085 20.3686 23.8312 20.6706C23.6605 20.9661 23.5358 21.3075 23.457 21.6948C23.3782 22.0756 23.3388 22.4827 23.3388 22.916ZM35.1764 19.8926V28.3424H32.3303V17.6866H34.9992L35.1764 19.8926ZM34.7825 22.6403H33.9946C33.9946 21.8984 34.0833 21.2155 34.2606 20.5918C34.4444 19.9615 34.7103 19.4166 35.0583 18.957C35.4128 18.4909 35.8494 18.1298 36.3681 17.8737C36.8868 17.6176 37.4875 17.4896 38.1703 17.4896C38.643 17.4896 39.0764 17.5618 39.4703 17.7063C39.8642 17.8442 40.2023 18.0641 40.4847 18.3661C40.7735 18.6616 40.9968 19.0489 41.1543 19.5282C41.3119 20.0009 41.3907 20.5688 41.3907 21.232V28.3424H38.5544V21.5471C38.5544 21.0613 38.4887 20.687 38.3574 20.4244C38.2261 20.1618 38.039 19.9779 37.7961 19.8729C37.5597 19.7679 37.2741 19.7153 36.9393 19.7153C36.5716 19.7153 36.2499 19.7908 35.9741 19.9418C35.705 20.0928 35.4817 20.3029 35.3045 20.5721C35.1272 20.8347 34.9959 21.1433 34.9105 21.4979C34.8252 21.8524 34.7825 22.2332 34.7825 22.6403ZM41.1248 22.3153L40.1104 22.4433C40.1104 21.7474 40.1958 21.1006 40.3665 20.5032C40.5437 19.9057 40.8031 19.3805 41.1445 18.9275C41.4925 18.4744 41.9225 18.1232 42.4346 17.8737C42.9467 17.6176 43.5376 17.4896 44.2073 17.4896C44.7194 17.4896 45.1856 17.5651 45.6058 17.7161C46.0259 17.8606 46.3838 18.0936 46.6792 18.4154C46.9812 18.7305 47.211 19.1441 47.3686 19.6562C47.5327 20.1683 47.6148 20.7954 47.6148 21.5373V28.3424H44.7687V21.5373C44.7687 21.0448 44.703 20.6706 44.5717 20.4146C44.4469 20.1519 44.2631 19.9714 44.0202 19.8729C43.7838 19.7679 43.5015 19.7153 43.1732 19.7153C42.8318 19.7153 42.5331 19.7843 42.277 19.9221C42.021 20.0535 41.8076 20.2373 41.6369 20.4736C41.4662 20.71 41.3382 20.9858 41.2528 21.3009C41.1675 21.6095 41.1248 21.9476 41.1248 22.3153ZM52.6473 19.8926V28.3424H49.8011V17.6866H52.47L52.6473 19.8926ZM52.2533 22.6403H51.4655C51.4655 21.8984 51.5541 21.2155 51.7314 20.5918C51.9152 19.9615 52.1811 19.4166 52.5291 18.957C52.8836 18.4909 53.3202 18.1298 53.8389 17.8737C54.3576 17.6176 54.9583 17.4896 55.6411 17.4896C56.1139 17.4896 56.5472 17.5618 56.9411 17.7063C57.335 17.8442 57.6732 18.0641 57.9555 18.3661C58.2444 18.6616 58.4676 19.0489 58.6252 19.5282C58.7827 20.0009 58.8615 20.5688 58.8615 21.232V28.3424H56.0252V21.5471C56.0252 21.0613 55.9596 20.687 55.8283 20.4244C55.6969 20.1618 55.5098 19.9779 55.2669 19.8729C55.0305 19.7679 54.7449 19.7153 54.4101 19.7153C54.0424 19.7153 53.7207 19.7908 53.445 19.9418C53.1758 20.0928 52.9526 20.3029 52.7753 20.5721C52.598 20.8347 52.4667 21.1433 52.3814 21.4979C52.296 21.8524 52.2533 22.2332 52.2533 22.6403ZM58.5956 22.3153L57.5812 22.4433C57.5812 21.7474 57.6666 21.1006 57.8373 20.5032C58.0146 19.9057 58.2739 19.3805 58.6153 18.9275C58.9633 18.4744 59.3933 18.1232 59.9054 17.8737C60.4175 17.6176 61.0084 17.4896 61.6781 17.4896C62.1902 17.4896 62.6564 17.5651 63.0766 17.7161C63.4968 17.8606 63.8546 18.0936 64.15 18.4154C64.4521 18.7305 64.6818 19.1441 64.8394 19.6562C65.0036 20.1683 65.0856 20.7954 65.0856 21.5373V28.3424H62.2395V21.5373C62.2395 21.0448 62.1738 20.6706 62.0425 20.4146C61.9178 20.1519 61.7339 19.9714 61.491 19.8729C61.2546 19.7679 60.9723 19.7153 60.6441 19.7153C60.3026 19.7153 60.0039 19.7843 59.7479 19.9221C59.4918 20.0535 59.2784 20.2373 59.1077 20.4736C58.937 20.71 58.809 20.9858 58.7236 21.3009C58.6383 21.6095 58.5956 21.9476 58.5956 22.3153ZM73.0332 25.9394V21.1926C73.0332 20.8512 72.9774 20.559 72.8658 20.3161C72.7541 20.0666 72.5802 19.8729 72.3438 19.735C72.114 19.5971 71.8153 19.5282 71.4476 19.5282C71.1325 19.5282 70.86 19.584 70.6302 19.6956C70.4004 19.8007 70.2231 19.955 70.0984 20.1585C69.9736 20.3555 69.9113 20.5885 69.9113 20.8577H67.075C67.075 20.4047 67.18 19.9747 67.3901 19.5676C67.6002 19.1605 67.9055 18.8027 68.306 18.4941C68.7065 18.179 69.1825 17.9328 69.734 17.7555C70.2921 17.5783 70.9158 17.4896 71.6052 17.4896C72.4324 17.4896 73.1678 17.6275 73.8112 17.9032C74.4546 18.179 74.9602 18.5926 75.3278 19.1441C75.7021 19.6956 75.8892 20.385 75.8892 21.2123V25.772C75.8892 26.3563 75.9253 26.8356 75.9975 27.2099C76.0697 27.5775 76.1748 27.8992 76.3126 28.175V28.3424H73.4468C73.3089 28.0535 73.2039 27.6924 73.1317 27.2591C73.066 26.8192 73.0332 26.3793 73.0332 25.9394ZM73.4074 21.8524L73.4271 23.4577H71.8415C71.4673 23.4577 71.1423 23.5003 70.8666 23.5857C70.5908 23.671 70.3643 23.7925 70.187 23.9501C70.0098 24.1011 69.8784 24.2784 69.7931 24.4819C69.7143 24.6854 69.6749 24.9086 69.6749 25.1516C69.6749 25.3945 69.7307 25.6144 69.8423 25.8114C69.9539 26.0018 70.1148 26.1528 70.3249 26.2644C70.535 26.3695 70.7812 26.422 71.0635 26.422C71.4903 26.422 71.8612 26.3366 72.1764 26.1659C72.4915 25.9952 72.7344 25.7851 72.9051 25.5357C73.0824 25.2862 73.1743 25.0498 73.1809 24.8266L73.9294 26.0281C73.8243 26.2973 73.6799 26.5763 73.496 26.8652C73.3188 27.154 73.0923 27.4265 72.8165 27.6826C72.5408 27.9321 72.2092 28.1389 71.8218 28.303C71.4345 28.4606 70.9749 28.5394 70.4431 28.5394C69.7668 28.5394 69.153 28.4048 68.6015 28.1356C68.0565 27.8598 67.6232 27.4823 67.3015 27.003C66.9863 26.5172 66.8288 25.9657 66.8288 25.3485C66.8288 24.7905 66.9338 24.2948 67.1439 23.8614C67.354 23.4281 67.6626 23.0637 68.0696 22.7683C68.4833 22.4663 68.9987 22.2398 69.6158 22.0888C70.233 21.9312 70.9486 21.8524 71.7627 21.8524H73.4074ZM80.8527 19.9615V28.3424H78.0164V17.6866H80.6754L80.8527 19.9615ZM80.4391 22.6403H79.6709C79.6709 21.8524 79.7727 21.1433 79.9762 20.513C80.1797 19.8762 80.4653 19.3345 80.833 18.8881C81.2007 18.4351 81.6373 18.0904 82.1428 17.854C82.6549 17.6111 83.2261 17.4896 83.8564 17.4896C84.3554 17.4896 84.8117 17.5618 85.2253 17.7063C85.639 17.8507 85.9935 18.0805 86.2889 18.3957C86.591 18.7108 86.8207 19.1277 86.9783 19.6464C87.1425 20.1651 87.2245 20.7986 87.2245 21.5471V28.3424H84.3685V21.5373C84.3685 21.0645 84.3029 20.6969 84.1716 20.4342C84.0403 20.1716 83.8466 19.9878 83.5905 19.8827C83.341 19.7711 83.0324 19.7153 82.6648 19.7153C82.284 19.7153 81.9524 19.7908 81.6701 19.9418C81.3944 20.0928 81.1646 20.3029 80.9807 20.5721C80.8035 20.8347 80.6689 21.1433 80.5769 21.4979C80.485 21.8524 80.4391 22.2332 80.4391 22.6403ZM95.6743 26.0182V13.2155H98.5303V28.3424H95.9599L95.6743 26.0182ZM88.9381 23.1425V22.9357C88.9381 22.1216 89.03 21.383 89.2139 20.7198C89.3977 20.0502 89.6669 19.4757 90.0214 18.9964C90.376 18.5171 90.8126 18.1462 91.3313 17.8835C91.8499 17.6209 92.4408 17.4896 93.1039 17.4896C93.7277 17.4896 94.2726 17.6209 94.7388 17.8835C95.2115 18.1462 95.612 18.5204 95.9402 19.0063C96.2751 19.4855 96.5443 20.0535 96.7478 20.71C96.9513 21.36 97.0991 22.0723 97.191 22.8471V23.3001C97.0991 24.042 96.9513 24.7314 96.7478 25.3682C96.5443 26.0051 96.2751 26.5632 95.9402 27.0424C95.612 27.5152 95.2115 27.8828 94.7388 28.1454C94.266 28.4081 93.7145 28.5394 93.0842 28.5394C92.4211 28.5394 91.8302 28.4048 91.3116 28.1356C90.7994 27.8664 90.3661 27.4889 90.0116 27.003C89.6636 26.5172 89.3977 25.946 89.2139 25.2894C89.03 24.6329 88.9381 23.9173 88.9381 23.1425ZM91.7744 22.9357V23.1425C91.7744 23.5824 91.8073 23.9928 91.8729 24.3736C91.9451 24.7544 92.06 25.0925 92.2176 25.3879C92.3817 25.6768 92.5918 25.9033 92.8479 26.0675C93.1105 26.225 93.4289 26.3038 93.8032 26.3038C94.289 26.3038 94.6895 26.1955 95.0047 25.9788C95.3198 25.7556 95.5594 25.4503 95.7236 25.0629C95.8943 24.6756 95.9928 24.2291 96.019 23.7236V22.4334C95.9993 22.0198 95.9402 21.6489 95.8418 21.3206C95.7498 20.9858 95.612 20.7002 95.4281 20.4638C95.2509 20.2274 95.0276 20.0436 94.7584 19.9123C94.4958 19.781 94.184 19.7153 93.8229 19.7153C93.4552 19.7153 93.1401 19.8007 92.8774 19.9714C92.6148 20.1355 92.4014 20.362 92.2373 20.6509C92.0797 20.9398 91.9615 21.2812 91.8828 21.6751C91.8105 22.0625 91.7744 22.4827 91.7744 22.9357Z" fill="white"/>
<path d="M20.8374 20.7592L21.2061 20.8846L21.2065 20.8835L20.8374 20.7592ZM21.8123 19.0358L21.5197 18.7788L21.8123 19.0358ZM23.3881 17.9032L23.5424 18.2609L23.5456 18.2595L23.3881 17.9032ZM27.6918 17.9032L27.5356 18.2601L27.5388 18.2614L27.6918 17.9032ZM29.2773 19.0358L28.9847 19.2928L28.9867 19.295L29.2773 19.0358ZM30.2622 20.7592L29.893 20.8835L29.8934 20.8846L30.2622 20.7592ZM30.2622 25.2796L30.6309 25.405L30.6313 25.4039L30.2622 25.2796ZM29.2773 27.003L28.9849 26.7457L28.9847 26.746L29.2773 27.003ZM27.7016 28.1356L27.5473 27.778L27.7016 28.1356ZM23.3979 28.1356L23.2436 28.4932L23.2449 28.4938L23.3979 28.1356ZM21.8123 27.003L21.518 27.2581L21.5217 27.2623L21.8123 27.003ZM20.8374 25.2796L20.4682 25.4039L20.4686 25.405L20.8374 25.2796ZM23.8312 25.3978L23.4939 25.5927L23.4993 25.6015L23.8312 25.3978ZM27.2486 25.3978L27.5839 25.5959L27.5858 25.5926L27.2486 25.3978ZM27.6228 24.3736L27.2424 24.2897L27.2412 24.2959L27.6228 24.3736ZM27.6228 21.6948L27.2411 21.7725L27.2428 21.78L27.6228 21.6948ZM27.2387 20.6706L26.8996 20.8623L26.9048 20.871L27.2387 20.6706ZM24.5108 19.9615L24.3092 19.6282L24.3058 19.6304L24.5108 19.9615ZM23.8312 20.6706L23.4953 20.4735L23.494 20.4758L23.8312 20.6706ZM23.457 21.6948L23.8384 21.7737L23.8387 21.7725L23.457 21.6948ZM20.892 23.1228V22.916H20.113V23.1228H20.892ZM20.892 22.916C20.892 22.172 20.9982 21.496 21.2061 20.8846L20.4686 20.6339C20.23 21.3356 20.113 22.0974 20.113 22.916H20.892ZM21.2065 20.8835C21.4146 20.2652 21.715 19.7368 22.105 19.2928L21.5197 18.7788C21.0562 19.3064 20.7066 19.927 20.4682 20.635L21.2065 20.8835ZM22.105 19.2928C22.4917 18.8525 22.9689 18.5083 23.5424 18.2608L23.2337 17.5457C22.5598 17.8365 21.9865 18.2474 21.5197 18.7788L22.105 19.2928ZM23.5456 18.2595C24.1114 18.0093 24.7718 17.8791 25.535 17.8791V17.1001C24.683 17.1001 23.9122 17.2457 23.2306 17.547L23.5456 18.2595ZM25.535 17.8791C26.298 17.8791 26.9624 18.0093 27.5356 18.2601L27.8479 17.5464C27.1605 17.2457 26.3871 17.1001 25.535 17.1001V17.8791ZM27.5388 18.2614C28.1188 18.5092 28.5986 18.8533 28.9847 19.2928L29.57 18.7788C29.1025 18.2466 28.5253 17.8357 27.8447 17.5451L27.5388 18.2614ZM28.9867 19.295C29.3824 19.7388 29.6853 20.2664 29.893 20.8835L30.6313 20.635C30.3925 19.9258 30.0389 19.3045 29.568 18.7766L28.9867 19.295ZM29.8934 20.8846C30.1013 21.496 30.2075 22.172 30.2075 22.916H30.9865C30.9865 22.0974 30.8695 21.3356 30.6309 20.6339L29.8934 20.8846ZM30.2075 22.916V23.1228H30.9865V22.916H30.2075ZM30.2075 23.1228C30.2075 23.8598 30.1014 24.5363 29.893 25.1553L30.6313 25.4039C30.8693 24.6966 30.9865 23.9353 30.9865 23.1228H30.2075ZM29.8934 25.1542C29.6857 25.765 29.3825 26.294 28.9849 26.7457L29.5697 27.2603C30.0388 26.7272 30.3921 26.1073 30.6309 25.405L29.8934 25.1542ZM28.9847 26.746C28.598 27.1863 28.1208 27.5305 27.5473 27.778L27.8559 28.4932C28.5299 28.2023 29.1032 27.7915 29.57 27.2601L28.9847 26.746ZM27.5473 27.778C26.9806 28.0226 26.319 28.1499 25.5547 28.1499V28.9288C26.4055 28.9288 27.1752 28.787 27.8559 28.4932L27.5473 27.778ZM25.5547 28.1499C24.7905 28.1499 24.125 28.0226 23.5509 27.7774L23.2449 28.4938C23.9314 28.787 24.7038 28.9288 25.5547 28.9288V28.1499ZM23.5522 27.778C22.9783 27.5303 22.4969 27.1855 22.103 26.7438L21.5217 27.2623C21.9944 27.7923 22.5701 28.2025 23.2436 28.4932L23.5522 27.778ZM22.1067 26.748C21.7149 26.296 21.4142 25.7662 21.2061 25.1542L20.4686 25.405C20.707 26.1061 21.0562 26.7253 21.518 27.2581L22.1067 26.748ZM21.2065 25.1553C20.9981 24.5363 20.892 23.8598 20.892 23.1228H20.113C20.113 23.9353 20.2302 24.6966 20.4682 25.4039L21.2065 25.1553ZM22.9493 22.916V23.1228H23.7283V22.916H22.9493ZM22.9493 23.1228C22.9493 23.5921 22.9907 24.0352 23.0753 24.4512L23.8387 24.2959C23.7657 23.9371 23.7283 23.5465 23.7283 23.1228H22.9493ZM23.0753 24.4512C23.1612 24.8734 23.2992 25.2555 23.494 25.5926L24.1685 25.2029C24.0218 24.9492 23.9104 24.6485 23.8387 24.2959L23.0753 24.4512ZM23.4993 25.6015C23.7089 25.9431 23.9847 26.2162 24.3249 26.414L24.7164 25.7406C24.4919 25.6101 24.3081 25.4302 24.1632 25.1941L23.4993 25.6015ZM24.3249 26.414C24.6796 26.6203 25.0956 26.713 25.5547 26.713V25.934C25.1996 25.934 24.9262 25.8626 24.7164 25.7406L24.3249 26.414ZM25.5547 26.713C26.0032 26.713 26.4119 26.6192 26.7648 26.414L26.3733 25.7406C26.1616 25.8637 25.894 25.934 25.5547 25.934V26.713ZM26.7648 26.414C27.1064 26.2154 27.3803 25.9405 27.5839 25.5959L26.9133 25.1996C26.7755 25.4328 26.5964 25.6109 26.3733 25.7406L26.7648 26.414ZM27.5858 25.5926C27.7806 25.2555 27.9186 24.8734 28.0045 24.4512L27.2412 24.2959C27.1695 24.6485 27.058 24.9492 26.9114 25.2029L27.5858 25.5926ZM28.0032 24.4574C28.0953 24.0393 28.1403 23.594 28.1403 23.1228H27.3614C27.3614 23.5446 27.3211 23.9331 27.2425 24.2897L28.0032 24.4574ZM28.1403 23.1228V22.916H27.3614V23.1228H28.1403ZM28.1403 22.916C28.1403 22.4571 28.0951 22.0213 28.0029 21.6096L27.2428 21.78C27.3212 22.13 27.3614 22.5082 27.3614 22.916H28.1403ZM28.0045 21.6172C27.9182 21.1928 27.7758 20.8087 27.5727 20.4702L26.9048 20.871C27.0562 21.1234 27.1699 21.4221 27.2412 21.7725L28.0045 21.6172ZM27.5778 20.479C27.3759 20.1218 27.1033 19.8354 26.7607 19.6282L26.3577 20.2948C26.5798 20.4291 26.7601 20.6154 26.8997 20.8623L27.5778 20.479ZM26.7607 19.6282C26.4058 19.4136 25.9913 19.316 25.535 19.316V20.095C25.8797 20.095 26.148 20.168 26.3577 20.2948L26.7607 19.6282ZM25.535 19.316C25.0787 19.316 24.6642 19.4136 24.3092 19.6282L24.7123 20.2948C24.922 20.168 25.1903 20.095 25.535 20.095V19.316ZM24.3058 19.6304C23.9719 19.8371 23.7021 20.1213 23.4953 20.4735L24.1671 20.8678C24.3149 20.6159 24.4981 20.4274 24.7158 20.2927L24.3058 19.6304ZM23.494 20.4758C23.2992 20.8129 23.1612 21.195 23.0753 21.6172L23.8387 21.7725C23.9104 21.4199 24.0218 21.1192 24.1685 20.8655L23.494 20.4758ZM23.0756 21.6159C22.9909 22.0254 22.9493 22.4591 22.9493 22.916H23.7283C23.7283 22.5062 23.7656 22.1258 23.8384 21.7737L23.0756 21.6159ZM35.1764 19.8926H35.5659V19.877L35.5647 19.8614L35.1764 19.8926ZM35.1764 28.3424V28.7319H35.5659V28.3424H35.1764ZM32.3303 28.3424H31.9408V28.7319H32.3303V28.3424ZM32.3303 17.6866V17.2971H31.9408V17.6866H32.3303ZM34.9992 17.6866L35.3874 17.6554L35.3586 17.2971H34.9992V17.6866ZM34.7825 22.6403V23.0297H35.172V22.6403H34.7825ZM33.9946 22.6403H33.6052V23.0297H33.9946V22.6403ZM34.2606 20.5918L33.8866 20.4828L33.8859 20.4853L34.2606 20.5918ZM35.0583 18.957L34.7483 18.7212L34.7477 18.7219L35.0583 18.957ZM36.3681 17.8737L36.5405 18.2229L36.3681 17.8737ZM39.4703 17.7063L39.3362 18.072L39.3416 18.0739L39.4703 17.7063ZM40.4847 18.3661L40.2001 18.6321L40.2062 18.6384L40.4847 18.3661ZM41.1543 19.5282L40.7843 19.6499L40.7848 19.6514L41.1543 19.5282ZM41.3907 28.3424V28.7319H41.7802V28.3424H41.3907ZM38.5544 28.3424H38.1649V28.7319H38.5544V28.3424ZM38.3574 20.4244L38.7058 20.2502L38.3574 20.4244ZM37.7961 19.8729L37.6379 20.2288L37.6415 20.2304L37.7961 19.8729ZM35.9741 19.9418L35.7871 19.6002L35.7836 19.6022L35.9741 19.9418ZM35.3045 20.5721L35.6273 20.79L35.6297 20.7863L35.3045 20.5721ZM41.1248 22.3153L41.1736 22.7017L41.5143 22.6587V22.3153H41.1248ZM40.1104 22.4433H39.7209V22.885L40.1592 22.8297L40.1104 22.4433ZM40.3665 20.5032L39.9931 20.3924L39.992 20.3962L40.3665 20.5032ZM41.1445 18.9275L40.8356 18.6902L40.8334 18.6931L41.1445 18.9275ZM42.4346 17.8737L42.6052 18.2239L42.6088 18.2221L42.4346 17.8737ZM45.6058 17.7161L45.474 18.0827L45.4791 18.0845L45.6058 17.7161ZM46.6792 18.4154L46.3923 18.6789L46.398 18.6848L46.6792 18.4154ZM47.3686 19.6562L46.9963 19.7708L46.9977 19.7751L47.3686 19.6562ZM47.6148 28.3424V28.7319H48.0043V28.3424H47.6148ZM44.7687 28.3424H44.3792V28.7319H44.7687V28.3424ZM44.5717 20.4146L44.2197 20.5817L44.2251 20.5923L44.5717 20.4146ZM44.0202 19.8729L43.8619 20.229L43.8739 20.2338L44.0202 19.8729ZM42.277 19.9221L42.4548 20.2688L42.4617 20.2651L42.277 19.9221ZM41.2528 21.3009L41.6282 21.4047L41.6288 21.4027L41.2528 21.3009ZM34.787 19.8926V28.3424H35.5659V19.8926H34.787ZM35.1764 27.9529H32.3303V28.7319H35.1764V27.9529ZM32.7198 28.3424V17.6866H31.9408V28.3424H32.7198ZM32.3303 18.0761H34.9992V17.2971H32.3303V18.0761ZM34.6109 17.7178L34.7882 19.9238L35.5647 19.8614L35.3874 17.6554L34.6109 17.7178ZM34.7825 22.2508H33.9946V23.0297H34.7825V22.2508ZM34.3841 22.6403C34.3841 21.9293 34.4691 21.2828 34.6352 20.6983L33.8859 20.4853C33.6975 21.1483 33.6052 21.8674 33.6052 22.6403H34.3841ZM34.6344 20.7009C34.8068 20.1099 35.0531 19.609 35.3688 19.1921L34.7477 18.7219C34.3675 19.2242 34.0819 19.8132 33.8867 20.4828L34.6344 20.7009ZM35.3683 19.1928C35.6868 18.774 36.0765 18.452 36.5405 18.2229L36.1957 17.5245C35.6223 17.8075 35.1388 18.2077 34.7483 18.7212L35.3683 19.1928ZM36.5405 18.2229C36.9967 17.9977 37.5366 17.8791 38.1703 17.8791V17.1001C37.4384 17.1001 36.7768 17.2376 36.1957 17.5245L36.5405 18.2229ZM38.1703 17.8791C38.603 17.8791 38.9903 17.9451 39.3362 18.072L39.6044 17.3406C39.1624 17.1786 38.683 17.1001 38.1703 17.1001V17.8791ZM39.3416 18.0739C39.6767 18.1912 39.9612 18.3765 40.2001 18.6321L40.7692 18.1001C40.4435 17.7517 40.0517 17.4971 39.5989 17.3387L39.3416 18.0739ZM40.2062 18.6384C40.4453 18.8829 40.6413 19.2148 40.7843 19.6499L41.5243 19.4066C41.3522 18.883 41.1018 18.4402 40.7631 18.0938L40.2062 18.6384ZM40.7848 19.6514C40.9256 20.0737 41.0012 20.5977 41.0012 21.232H41.7802C41.7802 20.54 41.6982 19.9282 41.5238 19.405L40.7848 19.6514ZM41.0012 21.232V28.3424H41.7802V21.232H41.0012ZM41.3907 27.9529H38.5544V28.7319H41.3907V27.9529ZM38.9439 28.3424V21.5471H38.1649V28.3424H38.9439ZM38.9439 21.5471C38.9439 21.0356 38.8763 20.5912 38.7058 20.2502L38.0091 20.5986C38.1012 20.7828 38.1649 21.0869 38.1649 21.5471H38.9439ZM38.7058 20.2502C38.5383 19.9152 38.2871 19.6609 37.9507 19.5154L37.6415 20.2304C37.7909 20.295 37.914 20.4084 38.0091 20.5986L38.7058 20.2502ZM37.9543 19.517C37.6557 19.3843 37.3132 19.3258 36.9393 19.3258V20.1048C37.235 20.1048 37.4637 20.1514 37.6379 20.2288L37.9543 19.517ZM36.9393 19.3258C36.5174 19.3258 36.1292 19.4129 35.7871 19.6002L36.1612 20.2834C36.3706 20.1688 36.6259 20.1048 36.9393 20.1048V19.3258ZM35.7836 19.6022C35.4577 19.785 35.1891 20.0391 34.9792 20.3579L35.6297 20.7863C35.7743 20.5668 35.9522 20.4007 36.1647 20.2815L35.7836 19.6022ZM34.9817 20.3542C34.7747 20.6608 34.6265 21.0137 34.5319 21.4067L35.2892 21.589C35.3653 21.273 35.4797 21.0087 35.6273 20.79L34.9817 20.3542ZM34.5319 21.4067C34.4386 21.7943 34.393 22.206 34.393 22.6403H35.172C35.172 22.2604 35.2118 21.9105 35.2892 21.589L34.5319 21.4067ZM41.076 21.9289L40.0617 22.0569L40.1592 22.8297L41.1736 22.7017L41.076 21.9289ZM40.4999 22.4433C40.4999 21.7793 40.5813 21.169 40.741 20.6102L39.992 20.3962C39.8102 21.0323 39.7209 21.7154 39.7209 22.4433H40.4999ZM40.7399 20.614C40.9052 20.0567 41.1448 19.5742 41.4555 19.1619L40.8334 18.6931C40.4614 19.1867 40.1823 19.7547 39.9931 20.3924L40.7399 20.614ZM41.4534 19.1647C41.7647 18.7594 42.1475 18.4468 42.6052 18.2238L42.264 17.5236C41.6975 17.7995 41.2202 18.1895 40.8356 18.6902L41.4534 19.1647ZM42.6088 18.2221C43.0584 17.9973 43.5879 17.8791 44.2073 17.8791V17.1001C43.4874 17.1001 42.8351 17.238 42.2604 17.5253L42.6088 18.2221ZM44.2073 17.8791C44.681 17.8791 45.1018 17.9489 45.474 18.0827L45.7375 17.3496C45.2693 17.1814 44.7578 17.1001 44.2073 17.1001V17.8791ZM45.4791 18.0845C45.8391 18.2082 46.1415 18.4057 46.3924 18.6788L46.9661 18.1519C46.626 17.7816 46.2128 17.5129 45.7324 17.3478L45.4791 18.0845ZM46.398 18.6848C46.6495 18.9473 46.8526 19.3037 46.9963 19.7708L47.7408 19.5417C47.5694 18.9845 47.3129 18.5137 46.9604 18.1459L46.398 18.6848ZM46.9977 19.7751C47.1458 20.2373 47.2253 20.8216 47.2253 21.5373H48.0043C48.0043 20.7692 47.9196 20.0994 47.7395 19.5374L46.9977 19.7751ZM47.2253 21.5373V28.3424H48.0043V21.5373H47.2253ZM47.6148 27.9529H44.7687V28.7319H47.6148V27.9529ZM45.1581 28.3424V21.5373H44.3792V28.3424H45.1581ZM45.1581 21.5373C45.1581 21.0212 45.0912 20.574 44.9182 20.2368L44.2251 20.5923C44.3148 20.7672 44.3792 21.0685 44.3792 21.5373H45.1581ZM44.9235 20.2474C44.7619 19.9072 44.5099 19.6512 44.1665 19.512L43.8739 20.2338C44.0163 20.2916 44.132 20.3967 44.2199 20.5817L44.9235 20.2474ZM44.1784 19.517C43.8807 19.3847 43.5419 19.3258 43.1732 19.3258V20.1048C43.4612 20.1048 43.6869 20.151 43.862 20.2288L44.1784 19.517ZM43.1732 19.3258C42.7786 19.3258 42.4143 19.4059 42.0924 19.5792L42.4617 20.2651C42.6519 20.1627 42.885 20.1048 43.1732 20.1048V19.3258ZM42.0993 19.5756C41.7878 19.7353 41.5274 19.9601 41.3212 20.2456L41.9526 20.7017C42.0878 20.5145 42.2542 20.3716 42.4548 20.2687L42.0993 19.5756ZM41.3212 20.2456C41.1198 20.5244 40.9731 20.844 40.8769 21.1991L41.6288 21.4027C41.7033 21.1275 41.8126 20.8956 41.9526 20.7017L41.3212 20.2456ZM40.8774 21.1971C40.7815 21.544 40.7353 21.9176 40.7353 22.3153H41.5143C41.5143 21.9776 41.5535 21.6749 41.6282 21.4047L40.8774 21.1971ZM52.6473 19.8926H53.0367V19.877L53.0355 19.8614L52.6473 19.8926ZM52.6473 28.3424V28.7319H53.0367V28.3424H52.6473ZM49.8011 28.3424H49.4116V28.7319H49.8011V28.3424ZM49.8011 17.6866V17.2971H49.4116V17.6866H49.8011ZM52.47 17.6866L52.8582 17.6554L52.8294 17.2971H52.47V17.6866ZM52.2533 22.6403V23.0297H52.6428V22.6403H52.2533ZM51.4655 22.6403H51.076V23.0297H51.4655V22.6403ZM51.7314 20.5918L51.3575 20.4828L51.3567 20.4853L51.7314 20.5918ZM52.5291 18.957L52.2191 18.7212L52.2186 18.7219L52.5291 18.957ZM53.8389 17.8737L54.0113 18.2229L53.8389 17.8737ZM56.9411 17.7063L56.807 18.072L56.8124 18.0739L56.9411 17.7063ZM57.9555 18.3661L57.6709 18.6321L57.677 18.6384L57.9555 18.3661ZM58.6252 19.5282L58.2552 19.6499L58.2557 19.6514L58.6252 19.5282ZM58.8615 28.3424V28.7319H59.251V28.3424H58.8615ZM56.0252 28.3424H55.6357V28.7319H56.0252V28.3424ZM55.8283 20.4244L56.1766 20.2502L55.8283 20.4244ZM55.2669 19.8729L55.1087 20.2288L55.1123 20.2304L55.2669 19.8729ZM53.445 19.9418L53.2579 19.6002L53.2544 19.6022L53.445 19.9418ZM52.7753 20.5721L53.0981 20.79L53.1006 20.7863L52.7753 20.5721ZM58.5956 22.3153L58.6444 22.7017L58.9851 22.6587V22.3153H58.5956ZM57.5812 22.4433H57.1918V22.885L57.63 22.8297L57.5812 22.4433ZM57.8373 20.5032L57.4639 20.3924L57.4628 20.3962L57.8373 20.5032ZM58.6153 18.9275L58.3064 18.6902L58.3043 18.6931L58.6153 18.9275ZM59.9054 17.8737L60.076 18.2239L60.0796 18.2221L59.9054 17.8737ZM63.0766 17.7161L62.9448 18.0827L62.95 18.0845L63.0766 17.7161ZM64.15 18.4154L63.8631 18.6789L63.8688 18.6848L64.15 18.4154ZM64.8394 19.6562L64.4671 19.7708L64.4685 19.7751L64.8394 19.6562ZM65.0856 28.3424V28.7319H65.4751V28.3424H65.0856ZM62.2395 28.3424H61.85V28.7319H62.2395V28.3424ZM62.0425 20.4146L61.6905 20.5817L61.6959 20.5923L62.0425 20.4146ZM61.491 19.8729L61.3327 20.229L61.3447 20.2338L61.491 19.8729ZM59.7479 19.9221L59.9256 20.2688L59.9325 20.2651L59.7479 19.9221ZM58.7236 21.3009L59.099 21.4047L59.0996 21.4027L58.7236 21.3009ZM52.2578 19.8926V28.3424H53.0367V19.8926H52.2578ZM52.6473 27.9529H49.8011V28.7319H52.6473V27.9529ZM50.1906 28.3424V17.6866H49.4116V28.3424H50.1906ZM49.8011 18.0761H52.47V17.2971H49.8011V18.0761ZM52.0818 17.7178L52.259 19.9238L53.0355 19.8614L52.8582 17.6554L52.0818 17.7178ZM52.2533 22.2508H51.4655V23.0297H52.2533V22.2508ZM51.8549 22.6403C51.8549 21.9293 51.9399 21.2828 52.106 20.6983L51.3567 20.4853C51.1683 21.1483 51.076 21.8674 51.076 22.6403H51.8549ZM52.1053 20.7009C52.2777 20.1099 52.5239 19.609 52.8396 19.1921L52.2186 18.7219C51.8383 19.2242 51.5528 19.8132 51.3575 20.4828L52.1053 20.7009ZM52.8391 19.1928C53.1576 18.774 53.5474 18.452 54.0113 18.2229L53.6665 17.5245C53.0931 17.8075 52.6096 18.2077 52.2191 18.7212L52.8391 19.1928ZM54.0113 18.2229C54.4675 17.9977 55.0074 17.8791 55.6411 17.8791V17.1001C54.9093 17.1001 54.2476 17.2376 53.6665 17.5245L54.0113 18.2229ZM55.6411 17.8791C56.0739 17.8791 56.4611 17.9451 56.807 18.072L57.0752 17.3406C56.6332 17.1786 56.1539 17.1001 55.6411 17.1001V17.8791ZM56.8124 18.0739C57.1476 18.1912 57.432 18.3765 57.671 18.6321L58.24 18.1001C57.9143 17.7517 57.5225 17.4971 57.0698 17.3387L56.8124 18.0739ZM57.677 18.6384C57.9161 18.8829 58.1121 19.2148 58.2552 19.6499L58.9952 19.4066C58.823 18.883 58.5726 18.4402 58.234 18.0938L57.677 18.6384ZM58.2557 19.6514C58.3964 20.0737 58.472 20.5977 58.472 21.232H59.251C59.251 20.54 59.169 19.9282 58.9947 19.405L58.2557 19.6514ZM58.472 21.232V28.3424H59.251V21.232H58.472ZM58.8615 27.9529H56.0252V28.7319H58.8615V27.9529ZM56.4147 28.3424V21.5471H55.6357V28.3424H56.4147ZM56.4147 21.5471C56.4147 21.0356 56.3471 20.5912 56.1766 20.2502L55.4799 20.5986C55.572 20.7828 55.6357 21.0869 55.6357 21.5471H56.4147ZM56.1766 20.2502C56.0091 19.9152 55.7579 19.6609 55.4215 19.5154L55.1123 20.2304C55.2617 20.295 55.3848 20.4084 55.4799 20.5986L56.1766 20.2502ZM55.4251 19.517C55.1266 19.3843 54.7841 19.3258 54.4101 19.3258V20.1048C54.7058 20.1048 54.9345 20.1514 55.1087 20.2288L55.4251 19.517ZM54.4101 19.3258C53.9882 19.3258 53.6 19.4129 53.2579 19.6002L53.632 20.2834C53.8414 20.1688 54.0967 20.1048 54.4101 20.1048V19.3258ZM53.2544 19.6022C52.9285 19.785 52.66 20.0391 52.45 20.3579L53.1006 20.7863C53.2452 20.5668 53.4231 20.4007 53.6355 20.2815L53.2544 19.6022ZM52.4525 20.3542C52.2456 20.6608 52.0973 21.0137 52.0027 21.4067L52.76 21.589C52.8361 21.273 52.9505 21.0087 53.0981 20.79L52.4525 20.3542ZM52.0027 21.4067C51.9094 21.7943 51.8639 22.206 51.8639 22.6403H52.6428C52.6428 22.2604 52.6826 21.9105 52.76 21.589L52.0027 21.4067ZM58.5468 21.9289L57.5325 22.0569L57.63 22.8297L58.6444 22.7017L58.5468 21.9289ZM57.9707 22.4433C57.9707 21.7793 58.0521 21.169 58.2118 20.6102L57.4628 20.3962C57.2811 21.0323 57.1918 21.7154 57.1918 22.4433H57.9707ZM58.2107 20.614C58.376 20.0567 58.6156 19.5742 58.9264 19.1619L58.3043 18.6931C57.9322 19.1867 57.6531 19.7547 57.4639 20.3924L58.2107 20.614ZM58.9242 19.1647C59.2355 18.7594 59.6183 18.4468 60.076 18.2238L59.7349 17.5236C59.1684 17.7995 58.691 18.1895 58.3064 18.6902L58.9242 19.1647ZM60.0796 18.2221C60.5292 17.9973 61.0587 17.8791 61.6781 17.8791V17.1001C60.9582 17.1001 60.3059 17.238 59.7313 17.5253L60.0796 18.2221ZM61.6781 17.8791C62.1518 17.8791 62.5726 17.9489 62.9449 18.0827L63.2083 17.3496C62.7401 17.1814 62.2286 17.1001 61.6781 17.1001V17.8791ZM62.95 18.0845C63.3099 18.2082 63.6124 18.4057 63.8632 18.6788L64.4369 18.1519C64.0968 17.7816 63.6836 17.5129 63.2032 17.3478L62.95 18.0845ZM63.8688 18.6848C64.1204 18.9473 64.3235 19.3037 64.4672 19.7708L65.2117 19.5417C65.0402 18.9845 64.7837 18.5137 64.4312 18.1459L63.8688 18.6848ZM64.4685 19.7751C64.6167 20.2373 64.6961 20.8216 64.6961 21.5373H65.4751C65.4751 20.7692 65.3904 20.0994 65.2103 19.5374L64.4685 19.7751ZM64.6961 21.5373V28.3424H65.4751V21.5373H64.6961ZM65.0856 27.9529H62.2395V28.7319H65.0856V27.9529ZM62.629 28.3424V21.5373H61.85V28.3424H62.629ZM62.629 21.5373C62.629 21.0212 62.562 20.574 62.3891 20.2368L61.6959 20.5923C61.7857 20.7672 61.85 21.0685 61.85 21.5373H62.629ZM62.3943 20.2474C62.2327 19.9072 61.9807 19.6512 61.6373 19.512L61.3447 20.2338C61.4871 20.2916 61.6028 20.3967 61.6907 20.5817L62.3943 20.2474ZM61.6492 19.517C61.3515 19.3847 61.0127 19.3258 60.6441 19.3258V20.1048C60.932 20.1048 61.1577 20.151 61.3328 20.2288L61.6492 19.517ZM60.6441 19.3258C60.2494 19.3258 59.8851 19.4059 59.5632 19.5792L59.9325 20.2651C60.1227 20.1627 60.3559 20.1048 60.6441 20.1048V19.3258ZM59.5701 19.5756C59.2586 19.7353 58.9982 19.9601 58.792 20.2456L59.4235 20.7017C59.5587 20.5145 59.725 20.3716 59.9256 20.2687L59.5701 19.5756ZM58.792 20.2456C58.5907 20.5244 58.4439 20.844 58.3477 21.1991L59.0996 21.4027C59.1741 21.1275 59.2834 20.8956 59.4235 20.7017L58.792 20.2456ZM58.3483 21.1971C58.2523 21.544 58.2061 21.9176 58.2061 22.3153H58.9851C58.9851 21.9776 59.0243 21.6749 59.099 21.4047L58.3483 21.1971ZM72.8658 20.3161L72.5102 20.4751L72.5118 20.4787L72.8658 20.3161ZM72.3438 19.735L72.1434 20.069L72.1475 20.0714L72.3438 19.735ZM70.6302 19.6956L70.7922 20.0499L70.8004 20.046L70.6302 19.6956ZM70.0984 20.1585L70.4275 20.3669L70.4305 20.362L70.0984 20.1585ZM69.9113 20.8577V21.2472H70.3007V20.8577H69.9113ZM67.075 20.8577H66.6855V21.2472H67.075V20.8577ZM67.3901 19.5676L67.044 19.389L67.3901 19.5676ZM68.306 18.4941L68.5437 18.8027L68.5469 18.8002L68.306 18.4941ZM69.734 17.7555L69.6161 17.3843L69.6148 17.3847L69.734 17.7555ZM73.8112 17.9032L73.6578 18.2612L73.8112 17.9032ZM75.3278 19.1441L75.0037 19.3602L75.0055 19.3628L75.3278 19.1441ZM75.9975 27.2099L75.6151 27.2837L75.6153 27.2849L75.9975 27.2099ZM76.3126 28.175H76.7021V28.083L76.661 28.0008L76.3126 28.175ZM76.3126 28.3424V28.7319H76.7021V28.3424H76.3126ZM73.4468 28.3424L73.0953 28.5102L73.2011 28.7319H73.4468V28.3424ZM73.1317 27.2591L72.7464 27.3166L72.7475 27.3231L73.1317 27.2591ZM73.4074 21.8524L73.7969 21.8476L73.7921 21.4629H73.4074V21.8524ZM73.4271 23.4577V23.8471H73.8214L73.8166 23.4529L73.4271 23.4577ZM70.187 23.9501L70.4396 24.2466L70.4458 24.2412L70.187 23.9501ZM69.7931 24.4819L69.4338 24.3312L69.4299 24.3413L69.7931 24.4819ZM69.8423 25.8114L69.5034 26.0034L69.5063 26.0084L69.8423 25.8114ZM70.3249 26.2644L70.1421 26.6085L70.1507 26.6128L70.3249 26.2644ZM72.9051 25.5357L72.5876 25.31L72.5837 25.3157L72.9051 25.5357ZM73.1809 24.8266L73.5115 24.6206L72.8295 23.5259L72.7916 24.8151L73.1809 24.8266ZM73.9294 26.0281L74.2922 26.1697L74.3632 25.9878L74.2599 25.8221L73.9294 26.0281ZM73.496 26.8652L73.1674 26.656L73.1641 26.6615L73.496 26.8652ZM72.8165 27.6826L73.0778 27.9714L73.0815 27.968L72.8165 27.6826ZM71.8218 28.303L71.9686 28.6638L71.9738 28.6616L71.8218 28.303ZM68.6015 28.1356L68.4256 28.4831L68.4306 28.4856L68.6015 28.1356ZM67.3015 27.003L66.9747 27.215L66.9781 27.2201L67.3015 27.003ZM68.0696 22.7683L68.2984 23.0835L68.2993 23.0828L68.0696 22.7683ZM69.6158 22.0888L69.7084 22.4671L69.7122 22.4661L69.6158 22.0888ZM73.4226 25.9394V21.1926H72.6437V25.9394H73.4226ZM73.4226 21.1926C73.4226 20.81 73.3603 20.4595 73.2197 20.1535L72.5118 20.4787C72.5945 20.6585 72.6437 20.8923 72.6437 21.1926H73.4226ZM73.2213 20.157C73.0764 19.8331 72.8466 19.5774 72.54 19.3986L72.1475 20.0714C72.3137 20.1683 72.4319 20.3 72.5102 20.4751L73.2213 20.157ZM72.5442 19.401C72.2354 19.2158 71.8606 19.1387 71.4476 19.1387V19.9177C71.7699 19.9177 71.9926 19.9785 72.1434 20.069L72.5442 19.401ZM71.4476 19.1387C71.087 19.1387 70.7538 19.2026 70.46 19.3453L70.8004 20.046C70.9662 19.9654 71.1779 19.9177 71.4476 19.9177V19.1387ZM70.4683 19.3414C70.1724 19.4767 69.934 19.6815 69.7663 19.955L70.4305 20.362C70.5123 20.2285 70.6284 20.1247 70.7921 20.0498L70.4683 19.3414ZM69.7694 19.9501C69.5993 20.2186 69.5218 20.5264 69.5218 20.8577H70.3007C70.3007 20.6507 70.348 20.4924 70.4274 20.3669L69.7694 19.9501ZM69.9113 20.4682H67.075V21.2472H69.9113V20.4682ZM67.4644 20.8577C67.4644 20.4676 67.5543 20.0987 67.7362 19.7462L67.044 19.389C66.8057 19.8506 66.6855 20.3418 66.6855 20.8577H67.4644ZM67.7362 19.7462C67.9175 19.3949 68.1837 19.0801 68.5437 18.8027L68.0683 18.1856C67.6273 18.5254 67.2829 18.9261 67.044 19.389L67.7362 19.7462ZM68.5469 18.8002C68.9063 18.5173 69.3398 18.2913 69.8532 18.1263L69.6148 17.3847C69.0252 17.5742 68.5067 17.8407 68.0652 18.1881L68.5469 18.8002ZM69.8519 18.1267C70.3658 17.9635 70.9489 17.8791 71.6052 17.8791V17.1001C70.8827 17.1001 70.2184 17.193 69.6161 17.3843L69.8519 18.1267ZM71.6052 17.8791C72.3891 17.8791 73.0708 18.0097 73.6578 18.2612L73.9646 17.5453C73.2647 17.2453 72.4757 17.1001 71.6052 17.1001V17.8791ZM73.6578 18.2612C74.2358 18.509 74.6804 18.8751 75.0038 19.3602L75.6519 18.9281C75.2399 18.3101 74.6734 17.849 73.9646 17.5453L73.6578 18.2612ZM75.0055 19.3628C75.3264 19.8357 75.4997 20.4441 75.4997 21.2123H76.2786C76.2786 20.3259 76.0777 19.5555 75.6501 18.9254L75.0055 19.3628ZM75.4997 21.2123V25.772H76.2786V21.2123H75.4997ZM75.4997 25.772C75.4997 26.3695 75.5364 26.8759 75.6151 27.2837L76.3799 27.1361C76.3142 26.7954 76.2786 26.3432 76.2786 25.772H75.4997ZM75.6153 27.2849C75.6929 27.6799 75.8078 28.0362 75.9643 28.3492L76.661 28.0008C76.5418 27.7623 76.4465 27.4752 76.3797 27.1348L75.6153 27.2849ZM75.9232 28.175V28.3424H76.7021V28.175H75.9232ZM76.3126 27.9529H73.4468V28.7319H76.3126V27.9529ZM73.7983 28.1746C73.6807 27.9283 73.5841 27.6048 73.5158 27.1951L72.7475 27.3231C72.8236 27.78 72.9371 28.1788 73.0953 28.5102L73.7983 28.1746ZM73.5169 27.2016C73.454 26.7805 73.4226 26.3599 73.4226 25.9394H72.6437C72.6437 26.3988 72.678 26.8579 72.7464 27.3166L73.5169 27.2016ZM73.018 21.8572L73.0377 23.4624L73.8166 23.4529L73.7969 21.8476L73.018 21.8572ZM73.4271 23.0682H71.8415V23.8471H73.4271V23.0682ZM71.8415 23.0682C71.4392 23.0682 71.0736 23.1139 70.7514 23.2136L70.9817 23.9578C71.211 23.8868 71.4954 23.8471 71.8415 23.8471V23.0682ZM70.7514 23.2136C70.4338 23.3119 70.1551 23.4574 69.9283 23.659L70.4458 24.2412C70.5735 24.1276 70.7478 24.0302 70.9817 23.9578L70.7514 23.2136ZM69.9345 23.6536C69.7133 23.842 69.5442 24.0683 69.4339 24.3313L70.1523 24.6325C70.2127 24.4884 70.3062 24.3602 70.4396 24.2466L69.9345 23.6536ZM69.4299 24.3413C69.3319 24.5945 69.2854 24.866 69.2854 25.1516H70.0644C70.0644 24.9513 70.0967 24.7764 70.1563 24.6225L69.4299 24.3413ZM69.2854 25.1516C69.2854 25.4567 69.3563 25.7436 69.5035 26.0034L70.1812 25.6194C70.1052 25.4852 70.0644 25.3323 70.0644 25.1516H69.2854ZM69.5063 26.0084C69.6573 26.2659 69.8735 26.4657 70.1422 26.6084L70.5076 25.9205C70.3561 25.84 70.2506 25.7377 70.1783 25.6144L69.5063 26.0084ZM70.1507 26.6128C70.4248 26.7498 70.7328 26.8115 71.0635 26.8115V26.0325C70.8296 26.0325 70.6452 25.9891 70.4991 25.9161L70.1507 26.6128ZM71.0635 26.8115C71.5427 26.8115 71.9798 26.7153 72.3619 26.5084L71.9909 25.8235C71.7426 25.9579 71.4378 26.0325 71.0635 26.0325V26.8115ZM72.3619 26.5084C72.7214 26.3137 73.015 26.0648 73.2266 25.7556L72.5837 25.3157C72.4539 25.5055 72.2617 25.6768 71.9909 25.8235L72.3619 26.5084ZM73.2226 25.7612C73.4284 25.4716 73.5607 25.1618 73.5702 24.838L72.7916 24.8151C72.788 24.9378 72.7364 25.1007 72.5877 25.3101L73.2226 25.7612ZM72.8503 25.0325L73.5988 26.234L74.2599 25.8221L73.5115 24.6206L72.8503 25.0325ZM73.5665 25.8865C73.4722 26.1282 73.3401 26.3847 73.1675 26.6561L73.8246 27.0743C74.0196 26.7678 74.1764 26.4663 74.2922 26.1697L73.5665 25.8865ZM73.1641 26.6615C73.0072 26.9171 72.8041 27.1626 72.5515 27.3972L73.0815 27.968C73.3804 27.6905 73.6303 27.391 73.828 27.0689L73.1641 26.6615ZM72.5552 27.3938C72.3157 27.6105 72.0224 27.7951 71.6699 27.9444L71.9738 28.6616C72.396 28.4827 72.7658 28.2537 73.0778 27.9714L72.5552 27.3938ZM71.6751 27.9422C71.3451 28.0765 70.9377 28.1499 70.4431 28.1499V28.9288C71.0121 28.9288 71.5238 28.8447 71.9686 28.6638L71.6751 27.9422ZM70.4431 28.1499C69.8199 28.1499 69.2654 28.0262 68.7723 27.7856L68.4306 28.4856C69.0406 28.7833 69.7137 28.9288 70.4431 28.9288V28.1499ZM68.7773 27.7881C68.2883 27.5406 67.9072 27.2066 67.6249 26.786L66.9781 27.2201C67.3392 27.758 67.8247 28.179 68.4256 28.4831L68.7773 27.7881ZM67.6282 26.7911C67.3568 26.3726 67.2182 25.8956 67.2182 25.3485H66.4393C66.4393 26.0357 66.6159 26.6618 66.9747 27.215L67.6282 26.7911ZM67.2182 25.3485C67.2182 24.84 67.3137 24.4039 67.4944 24.0314L66.7935 23.6915C66.5539 24.1856 66.4393 24.7409 66.4393 25.3485H67.2182ZM67.4944 24.0314C67.6752 23.6583 67.9409 23.343 68.2984 23.0835L67.8409 22.4531C67.3843 22.7845 67.0328 23.1979 66.7935 23.6915L67.4944 24.0314ZM68.2993 23.0828C68.6633 22.8171 69.1292 22.6088 69.7084 22.4671L69.5233 21.7104C68.8682 21.8707 68.3033 22.1154 67.84 22.4537L68.2993 23.0828ZM69.7122 22.4661C70.2905 22.3185 70.9726 22.2419 71.7627 22.2419V21.4629C70.9246 21.4629 70.1754 21.5439 69.5195 21.7114L69.7122 22.4661ZM71.7627 22.2419H73.4074V21.4629H71.7627V22.2419ZM80.8527 19.9615H81.2422V19.9464L81.241 19.9313L80.8527 19.9615ZM80.8527 28.3424V28.7319H81.2422V28.3424H80.8527ZM78.0164 28.3424H77.6269V28.7319H78.0164V28.3424ZM78.0164 17.6866V17.2971H77.6269V17.6866H78.0164ZM80.6754 17.6866L81.0637 17.6563L81.0357 17.2971H80.6754V17.6866ZM80.4391 22.6403V23.0297H80.8285V22.6403H80.4391ZM79.6709 22.6403H79.2814V23.0297H79.6709V22.6403ZM79.9762 20.513L80.3468 20.6327L80.3472 20.6316L79.9762 20.513ZM80.833 18.8881L81.1337 19.1357L81.1354 19.1335L80.833 18.8881ZM82.1428 17.854L82.3078 18.2068L82.3097 18.2059L82.1428 17.854ZM86.2889 18.3957L86.0048 18.6621L86.0077 18.6651L86.2889 18.3957ZM86.9783 19.6464L86.6056 19.7596L86.607 19.7639L86.9783 19.6464ZM87.2245 28.3424V28.7319H87.614V28.3424H87.2245ZM84.3685 28.3424H83.9791V28.7319H84.3685V28.3424ZM84.1716 20.4342L84.5199 20.2601L84.1716 20.4342ZM83.5905 19.8827L83.4314 20.2384L83.4427 20.2431L83.5905 19.8827ZM81.6701 19.9418L81.4864 19.5984L81.483 19.6002L81.6701 19.9418ZM80.9807 20.5721L80.6591 20.3525L80.6579 20.3542L80.9807 20.5721ZM80.4632 19.9615V28.3424H81.2422V19.9615H80.4632ZM80.8527 27.9529H78.0164V28.7319H80.8527V27.9529ZM78.4059 28.3424V17.6866H77.6269V28.3424H78.4059ZM78.0164 18.0761H80.6754V17.2971H78.0164V18.0761ZM80.2871 17.7168L80.4644 19.9918L81.241 19.9313L81.0637 17.6563L80.2871 17.7168ZM80.4391 22.2508H79.6709V23.0297H80.4391V22.2508ZM80.0604 22.6403C80.0604 21.8856 80.1579 21.2178 80.3468 20.6327L79.6056 20.3934C79.3874 21.0688 79.2814 21.8192 79.2814 22.6403H80.0604ZM80.3472 20.6316C80.538 20.0346 80.8019 19.5385 81.1336 19.1357L80.5324 18.6405C80.1288 19.1306 79.8215 19.7178 79.6052 20.3945L80.3472 20.6316ZM81.1354 19.1335C81.4677 18.7241 81.858 18.4171 82.3078 18.2068L81.9779 17.5012C81.4165 17.7636 80.9336 18.146 80.5306 18.6426L81.1354 19.1335ZM82.3097 18.2059C82.7641 17.9904 83.2773 17.8791 83.8564 17.8791V17.1001C83.1749 17.1001 82.5458 17.2318 81.9759 17.5021L82.3097 18.2059ZM83.8564 17.8791C84.3177 17.8791 84.7299 17.9458 85.0969 18.074L85.3537 17.3386C84.8935 17.1779 84.3931 17.1001 83.8564 17.1001V17.8791ZM85.0969 18.074C85.4521 18.198 85.753 18.3934 86.0048 18.662L86.5731 18.1293C86.234 17.7676 85.8258 17.5034 85.3537 17.3386L85.0969 18.074ZM86.0077 18.6651C86.2584 18.9267 86.4617 19.2856 86.6057 19.7596L87.351 19.5332C87.1798 18.9698 86.9235 18.4949 86.5701 18.1262L86.0077 18.6651ZM86.607 19.7639C86.7555 20.2333 86.835 20.8247 86.835 21.5471H87.614C87.614 20.7726 87.5294 20.0968 87.3496 19.5289L86.607 19.7639ZM86.835 21.5471V28.3424H87.614V21.5471H86.835ZM87.2245 27.9529H84.3685V28.7319H87.2245V27.9529ZM84.758 28.3424V21.5373H83.9791V28.3424H84.758ZM84.758 21.5373C84.758 21.0369 84.6899 20.6 84.5199 20.2601L83.8232 20.6084C83.9159 20.7937 83.9791 21.0922 83.9791 21.5373H84.758ZM84.5199 20.2601C84.3493 19.9188 84.0872 19.6655 83.7383 19.5224L83.4427 20.2431C83.606 20.3101 83.7312 20.4245 83.8232 20.6084L84.5199 20.2601ZM83.7496 19.5272C83.4359 19.3869 83.0694 19.3258 82.6648 19.3258V20.1048C82.9955 20.1048 83.2461 20.1553 83.4315 20.2383L83.7496 19.5272ZM82.6648 19.3258C82.232 19.3258 81.835 19.4119 81.4864 19.5984L81.8538 20.2853C82.0698 20.1697 82.336 20.1048 82.6648 20.1048V19.3258ZM81.483 19.6002C81.1514 19.7818 80.8762 20.0345 80.6591 20.3525L81.3024 20.7918C81.4529 20.5713 81.6373 20.4039 81.8572 20.2834L81.483 19.6002ZM80.6579 20.3542C80.4523 20.6588 80.3013 21.0093 80.1999 21.4001L80.954 21.5956C81.0365 21.2773 81.1546 21.0107 81.3035 20.79L80.6579 20.3542ZM80.1999 21.4001C80.0989 21.7899 80.0496 22.2038 80.0496 22.6403H80.8285C80.8285 22.2626 80.8712 21.9149 80.954 21.5956L80.1999 21.4001ZM95.6743 26.0182H95.2849V26.0421L95.2878 26.0657L95.6743 26.0182ZM95.6743 13.2155V12.826H95.2849V13.2155H95.6743ZM98.5303 13.2155H98.9198V12.826H98.5303V13.2155ZM98.5303 28.3424V28.7319H98.9198V28.3424H98.5303ZM95.9599 28.3424L95.5734 28.3899L95.6154 28.7319H95.9599V28.3424ZM89.2139 20.7198L89.5892 20.8239L89.5895 20.823L89.2139 20.7198ZM94.7388 17.8835L94.5476 18.2229L94.5496 18.224L94.7388 17.8835ZM95.9402 19.0063L95.6175 19.2243L95.621 19.2293L95.9402 19.0063ZM96.7478 20.71L96.3758 20.8253L96.3761 20.8264L96.7478 20.71ZM97.191 22.8471H97.5804V22.8241L97.5777 22.8012L97.191 22.8471ZM97.191 23.3001L97.5775 23.348L97.5804 23.3241V23.3001H97.191ZM95.9402 27.0424L95.621 26.8194L95.6203 26.8203L95.9402 27.0424ZM91.3116 28.1356L91.1303 28.4803L91.1321 28.4813L91.3116 28.1356ZM90.0116 27.003L89.6949 27.2298L89.697 27.2326L90.0116 27.003ZM89.2139 25.2894L88.8388 25.3945L89.2139 25.2894ZM91.8729 24.3736L91.489 24.4397L91.4903 24.4461L91.8729 24.3736ZM92.2176 25.3879L91.8738 25.5713L91.879 25.5803L92.2176 25.3879ZM92.8479 26.0675L92.6376 26.3955L92.6475 26.4014L92.8479 26.0675ZM95.0047 25.9788L95.2253 26.2998L95.2298 26.2966L95.0047 25.9788ZM95.7236 25.0629L95.3671 24.9059L95.365 24.911L95.7236 25.0629ZM96.019 23.7236L96.408 23.7438L96.4085 23.7337V23.7236H96.019ZM96.019 22.4334H96.4085V22.4242L96.4081 22.4149L96.019 22.4334ZM95.8418 21.3206L95.4661 21.4237L95.4687 21.4325L95.8418 21.3206ZM95.4281 20.4638L95.1165 20.6975L95.1207 20.7029L95.4281 20.4638ZM94.7584 19.9123L94.5843 20.2607L94.5877 20.2623L94.7584 19.9123ZM92.8774 19.9714L93.0839 20.3017L93.0897 20.2979L92.8774 19.9714ZM92.2373 20.6509L91.8986 20.4585L91.8954 20.4644L92.2373 20.6509ZM91.8828 21.6751L91.5008 21.5987L91.4999 21.6037L91.8828 21.6751ZM96.0638 26.0182V13.2155H95.2849V26.0182H96.0638ZM95.6743 13.6049H98.5303V12.826H95.6743V13.6049ZM98.1409 13.2155V28.3424H98.9198V13.2155H98.1409ZM98.5303 27.9529H95.9599V28.7319H98.5303V27.9529ZM96.3465 28.2949L96.0609 25.9707L95.2878 26.0657L95.5734 28.3899L96.3465 28.2949ZM89.3276 23.1425V22.9357H88.5486V23.1425H89.3276ZM89.3276 22.9357C89.3276 22.1505 89.4163 21.4476 89.5892 20.8239L88.8386 20.6158C88.6438 21.3183 88.5486 22.0927 88.5486 22.9357H89.3276ZM89.5895 20.823C89.7626 20.1921 90.0129 19.6629 90.3346 19.228L89.7083 18.7648C89.3209 19.2885 89.0328 19.9083 88.8383 20.6167L89.5895 20.823ZM90.3346 19.228C90.654 18.7962 91.044 18.4655 91.5072 18.231L91.1553 17.5361C90.5811 17.8268 90.098 18.238 89.7083 18.7648L90.3346 19.228ZM91.5072 18.231C91.9641 17.9997 92.4933 17.8791 93.1039 17.8791V17.1001C92.3883 17.1001 91.7358 17.2422 91.1553 17.5361L91.5072 18.231ZM93.1039 17.8791C93.6719 17.8791 94.1488 17.9982 94.5476 18.2229L94.9299 17.5442C94.3964 17.2436 93.7835 17.1001 93.1039 17.1001V17.8791ZM94.5496 18.224C94.9644 18.4544 95.3206 18.7848 95.6175 19.2243L96.263 18.7882C95.9033 18.256 95.4586 17.8379 94.9279 17.5431L94.5496 18.224ZM95.621 19.2293C95.9291 19.6704 96.1821 20.2006 96.3758 20.8253L97.1198 20.5947C96.9064 19.9063 96.621 19.3007 96.2595 18.7832L95.621 19.2293ZM96.3761 20.8264C96.5715 21.4504 96.7147 22.1388 96.8042 22.893L97.5777 22.8012C97.4834 22.0059 97.3312 21.2696 97.1195 20.5936L96.3761 20.8264ZM96.8015 22.8471V23.3001H97.5804V22.8471H96.8015ZM96.8044 23.2522C96.7152 23.9729 96.5722 24.6384 96.3768 25.2497L97.1188 25.4868C97.3305 24.8244 97.4829 24.1111 97.5775 23.348L96.8044 23.2522ZM96.3768 25.2497C96.1835 25.8545 95.9305 26.3764 95.621 26.8194L96.2595 27.2655C96.6197 26.75 96.905 26.1556 97.1188 25.4868L96.3768 25.2497ZM95.6203 26.8203C95.3238 27.2473 94.9669 27.5731 94.5496 27.805L94.9279 28.4859C95.456 28.1925 95.9001 27.783 96.2601 27.2646L95.6203 26.8203ZM94.5496 27.805C94.1437 28.0305 93.6594 28.1499 93.0842 28.1499V28.9288C93.7697 28.9288 94.3884 28.7856 94.9279 28.4859L94.5496 27.805ZM93.0842 28.1499C92.4751 28.1499 91.9471 28.0266 91.491 27.7899L91.1321 28.4813C91.7133 28.7829 92.3672 28.9288 93.0842 28.9288V28.1499ZM91.4928 27.7908C91.0355 27.5505 90.6471 27.2132 90.3262 26.7735L89.697 27.2326C90.0852 27.7646 90.5634 28.1824 91.1303 28.4803L91.4928 27.7908ZM90.3282 26.7763C90.0101 26.3321 89.7622 25.8034 89.5889 25.1844L88.8388 25.3945C89.0332 26.0886 89.3171 26.7023 89.6949 27.2298L90.3282 26.7763ZM89.5889 25.1844C89.4159 24.5663 89.3276 23.8865 89.3276 23.1425H88.5486C88.5486 23.948 88.6442 24.6994 88.8388 25.3945L89.5889 25.1844ZM91.3849 22.9357V23.1425H92.1639V22.9357H91.3849ZM91.3849 23.1425C91.3849 23.6016 91.4192 24.0343 91.4891 24.4397L92.2567 24.3074C92.1953 23.9512 92.1639 23.5632 92.1639 23.1425H91.3849ZM91.4903 24.4461C91.5687 24.8596 91.6952 25.2361 91.8739 25.5712L92.5613 25.2046C92.4248 24.9489 92.3216 24.6491 92.2556 24.301L91.4903 24.4461ZM91.879 25.5803C92.0714 25.9189 92.3237 26.1941 92.6377 26.3954L93.0581 25.7396C92.86 25.6126 92.6921 25.4347 92.5562 25.1955L91.879 25.5803ZM92.6475 26.4014C92.9828 26.6026 93.374 26.6933 93.8032 26.6933V25.9143C93.4839 25.9143 93.2382 25.8475 93.0483 25.7335L92.6475 26.4014ZM93.8032 26.6933C94.3465 26.6933 94.8297 26.5718 95.2253 26.2998L94.784 25.6579C94.5494 25.8192 94.2315 25.9143 93.8032 25.9143V26.6933ZM95.2298 26.2966C95.6092 26.0279 95.8924 25.6627 96.0822 25.2149L95.365 24.911C95.2264 25.2379 95.0304 25.4833 94.7795 25.661L95.2298 26.2966ZM96.08 25.22C96.2731 24.7818 96.3797 24.2875 96.408 23.7438L95.6301 23.7034C95.6058 24.1707 95.5155 24.5693 95.3672 24.9059L96.08 25.22ZM96.4085 23.7236V22.4334H95.6295V23.7236H96.4085ZM96.4081 22.4149C96.3872 21.976 96.3241 21.5728 96.2148 21.2087L95.4687 21.4325C95.5564 21.7249 95.6115 22.0637 95.63 22.452L96.4081 22.4149ZM96.2173 21.2175C96.114 20.8411 95.9554 20.5074 95.7356 20.2247L95.1207 20.7029C95.2685 20.8929 95.3857 21.1304 95.4662 21.4237L96.2173 21.2175ZM95.7397 20.2301C95.5249 19.9436 95.2531 19.7202 94.9292 19.5622L94.5877 20.2623C94.8022 20.367 94.9769 20.5112 95.1165 20.6975L95.7397 20.2301ZM94.9326 19.5639C94.6049 19.4001 94.2308 19.3258 93.8229 19.3258V20.1048C94.1372 20.1048 94.3867 20.1619 94.5843 20.2607L94.9326 19.5639ZM93.8229 19.3258C93.3932 19.3258 93.0013 19.4263 92.6652 19.6448L93.0897 20.2979C93.2788 20.175 93.5172 20.1048 93.8229 20.1048V19.3258ZM92.671 19.6411C92.3496 19.842 92.0923 20.1176 91.8987 20.4585L92.5759 20.8433C92.7105 20.6064 92.88 20.429 93.0839 20.3017L92.671 19.6411ZM91.8954 20.4644C91.7154 20.7944 91.5857 21.1745 91.5008 21.5987L92.2647 21.7515C92.3374 21.3879 92.4441 21.0852 92.5792 20.8374L91.8954 20.4644ZM91.4999 21.6037C91.4227 22.0178 91.3849 22.4622 91.3849 22.9357H92.1639C92.1639 22.5032 92.1984 22.1072 92.2656 21.7465L91.4999 21.6037Z" fill="black"/>
</g>
</g>
</g>
</g>
</svg>
