<svg width="42" height="60" viewBox="0 0 42 60" fill="none" xmlns="http://www.w3.org/2000/svg">
<g id="CP-New-Logo">
<path id="Ellipse 2" d="M34.5686 20.1681C34.5686 30.1184 27.1765 38.1687 18.0768 38.1687C8.97709 38.1687 1.58501 30.1184 1.58501 20.1681C1.58501 10.2179 8.97709 2.16755 18.0768 2.16755C27.1765 2.16755 34.5686 10.2179 34.5686 20.1681Z" fill="url(#paint0_radial_10_4)" stroke="black" stroke-width="0.211034"/>
<path id="P" d="M28.6493 40.415H21.6571V36.0048H28.6493C29.7299 36.0048 30.6094 35.8289 31.2879 35.4771C31.9664 35.1127 32.4627 34.6101 32.7768 33.9693C33.0909 33.3285 33.248 32.6061 33.248 31.8019C33.248 30.9852 33.0909 30.2251 32.7768 29.5215C32.4627 28.8178 31.9664 28.2524 31.2879 27.8252C30.6094 27.398 29.7299 27.1844 28.6493 27.1844H23.6172V50.1965H17.9632V22.7554H28.6493C30.7979 22.7554 32.6386 23.1449 34.1715 23.9239C35.7169 24.6904 36.898 25.7521 37.7147 27.1091C38.5314 28.466 38.9397 30.0178 38.9397 31.7642C38.9397 33.5358 38.5314 35.0687 37.7147 36.3629C36.898 37.657 35.7169 38.6559 34.1715 39.3595C32.6386 40.0631 30.7979 40.415 28.6493 40.415Z" fill="black"/>
<g id="Ellipse 1" opacity="0.99">
<mask id="path-3-inside-1_10_4" fill="white">
<path d="M29.5229 25.9638C28.2006 28.1616 26.1516 29.8984 23.6837 30.9131C21.2159 31.9278 18.4627 32.1656 15.8381 31.5907C13.2134 31.0158 10.8592 29.6593 9.12921 27.7252C7.39924 25.791 6.38708 23.3837 6.24487 20.8651C6.10267 18.3465 6.83811 15.8528 8.34064 13.7589C9.84317 11.665 12.0316 10.0839 14.5769 9.25351C17.1222 8.42309 19.8868 8.38814 22.4552 9.15393C25.0235 9.91972 27.2568 11.4449 28.8192 13.5001L24.1904 16.5805C23.3409 15.4632 22.1268 14.634 20.7304 14.2177C19.3341 13.8013 17.831 13.8203 16.4472 14.2718C15.0634 14.7233 13.8736 15.5828 13.0567 16.7213C12.2398 17.8597 11.84 19.2155 11.9173 20.5847C11.9946 21.954 12.5449 23.2628 13.4854 24.3144C14.426 25.3659 15.7059 26.1034 17.1329 26.416C18.5598 26.7285 20.0567 26.5993 21.3984 26.0476C22.7401 25.4959 23.8541 24.5517 24.573 23.3568L29.5229 25.9638Z"/>
</mask>
<path d="M29.5229 25.9638C28.2006 28.1616 26.1516 29.8984 23.6837 30.9131C21.2159 31.9278 18.4627 32.1656 15.8381 31.5907C13.2134 31.0158 10.8592 29.6593 9.12921 27.7252C7.39924 25.791 6.38708 23.3837 6.24487 20.8651C6.10267 18.3465 6.83811 15.8528 8.34064 13.7589C9.84317 11.665 12.0316 10.0839 14.5769 9.25351C17.1222 8.42309 19.8868 8.38814 22.4552 9.15393C25.0235 9.91972 27.2568 11.4449 28.8192 13.5001L24.1904 16.5805C23.3409 15.4632 22.1268 14.634 20.7304 14.2177C19.3341 13.8013 17.831 13.8203 16.4472 14.2718C15.0634 14.7233 13.8736 15.5828 13.0567 16.7213C12.2398 17.8597 11.84 19.2155 11.9173 20.5847C11.9946 21.954 12.5449 23.2628 13.4854 24.3144C14.426 25.3659 15.7059 26.1034 17.1329 26.416C18.5598 26.7285 20.0567 26.5993 21.3984 26.0476C22.7401 25.4959 23.8541 24.5517 24.573 23.3568L29.5229 25.9638Z" fill="#D10D0D" stroke="black" stroke-width="0.422068" mask="url(#path-3-inside-1_10_4)"/>
</g>
</g>
<defs>
<radialGradient id="paint0_radial_10_4" cx="0" cy="0" r="1" gradientUnits="userSpaceOnUse" gradientTransform="translate(18.0768 20.1681) rotate(0.076555) scale(32.046 41.7532)">
<stop stop-color="#FFB7B7"/>
<stop offset="1"/>
</radialGradient>
</defs>
</svg>
